<svg width="40" height="40" viewBox="0 0 40 40" fill="none" xmlns="http://www.w3.org/2000/svg">
<path d="M31.6663 21.25H8.33301C8.00149 21.25 7.68354 21.1183 7.44912 20.8839C7.2147 20.6495 7.08301 20.3315 7.08301 20C7.08301 19.6685 7.2147 19.3505 7.44912 19.1161C7.68354 18.8817 8.00149 18.75 8.33301 18.75H31.6663C31.9979 18.75 32.3158 18.8817 32.5502 19.1161C32.7846 19.3505 32.9163 19.6685 32.9163 20C32.9163 20.3315 32.7846 20.6495 32.5502 20.8839C32.3158 21.1183 31.9979 21.25 31.6663 21.25Z" fill="black" fill-opacity="0.6"/>
<path d="M31.6663 13.75H8.33301C8.00149 13.75 7.68354 13.6183 7.44912 13.3839C7.2147 13.1495 7.08301 12.8315 7.08301 12.5C7.08301 12.1685 7.2147 11.8505 7.44912 11.6161C7.68354 11.3817 8.00149 11.25 8.33301 11.25H31.6663C31.9979 11.25 32.3158 11.3817 32.5502 11.6161C32.7846 11.8505 32.9163 12.1685 32.9163 12.5C32.9163 12.8315 32.7846 13.1495 32.5502 13.3839C32.3158 13.6183 31.9979 13.75 31.6663 13.75Z" fill="black" fill-opacity="0.6"/>
<path d="M31.6663 28.75H8.33301C8.00149 28.75 7.68354 28.6183 7.44912 28.3839C7.2147 28.1495 7.08301 27.8315 7.08301 27.5C7.08301 27.1685 7.2147 26.8505 7.44912 26.6161C7.68354 26.3817 8.00149 26.25 8.33301 26.25H31.6663C31.9979 26.25 32.3158 26.3817 32.5502 26.6161C32.7846 26.8505 32.9163 27.1685 32.9163 27.5C32.9163 27.8315 32.7846 28.1495 32.5502 28.3839C32.3158 28.6183 31.9979 28.75 31.6663 28.75Z" fill="black" fill-opacity="0.6"/>
</svg>
