<svg fill="none" height="24" viewBox="0 0 24 24" width="24" xmlns="http://www.w3.org/2000/svg"><path clip-rule="evenodd" d="m16.6889 4.29768c-.871-.28508-2.0573-.29768-4.6889-.29768-1.4115 0-2.42006.00054-3.21486.05477-.78583.05361-1.2894.15635-1.69856.32583-1.22514.50747-2.19851 1.48084-2.70598 2.70598-.16948.40916-.27221.91273-.32583 1.69855-.05423.79481-.05477 1.80337-.05477 3.21487s.00054 2.4201.05477 3.2149c.05362.7858.15635 1.2894.32583 1.6985.50747 1.2252 1.48084 2.1985 2.70598 2.706.40916.1695.91273.2722 1.69856.3258.7948.0543 1.80336.0548 3.21486.0548s2.4201-.0005 3.2149-.0548c.7858-.0536 1.2894-.1563 1.6985-.3258 1.2252-.5075 2.1985-1.4808 2.706-2.706.1695-.4091.2722-.9127.3258-1.6985.0543-.7948.0548-1.8034.0548-3.2149 0-.7658 0-1.4162-.0092-1.9839-.0089-.55221.4316-1.00708.9838-1.01597.5522-.0089 1.0071.43155 1.016.98376.0094.58551.0094 1.25141.0094 2.00971v.0432c0 1.3667 0 2.4433-.0594 3.3142-.0606.8877-.1862 1.6343-.4734 2.3278-.7105 1.7152-2.0732 3.0779-3.7884 3.7884-.6935.2872-1.4401.4128-2.3278.4734-.8709.0594-1.9475.0594-3.3141.0594h-.0738c-1.3666 0-2.44324 0-3.3141-.0594-.88766-.0606-1.63431-.1862-2.32778-.4734-1.7152-.7105-3.07792-2.0732-3.78838-3.7884-.28724-.6935-.41287-1.4401-.47343-2.3278-.05942-.8709-.05941-1.9475-.05941-3.3142v-.0736c0-1.3667-.00001-2.44335.05941-3.31421.06056-.88765.18619-1.63431.47343-2.32778.71046-1.71519 2.07318-3.07791 3.78838-3.78837.69347-.28725 1.44012-.41287 2.32777-.47343.87087-.05942 1.94751-.05942 3.31421-.05941h.0368c.0724 0 .1441-.00001.215-.00002 2.3496-.00036 3.8815-.00059 5.0961.39693.5248.17179.8111.73656.6393 1.26145-.1718.52488-.7366.81112-1.2615.63932zm5.1748.69834c.2783.47706.1172 1.08937-.3599 1.36765l-.2216.1293c-3.5949 2.09701-6.4832 5.21793-8.296 8.96413-.141.2913-.4142.4964-.7333.5504s-.6446-.0497-.8736-.2785l-4.01346-4.0092c-.39073-.3903-.39107-1.0234-.00075-1.4142.39031-.39071 1.02348-.39105 1.41421-.0007l3.0505 3.0473c1.9955-3.55608 4.9079-6.52373 8.4446-8.58679l.2217-.12929c.477-.27828 1.0893-.11715 1.3676.3599z" fill="rgb(0,0,0)" fill-rule="evenodd"/></svg>