<svg width="512" height="512" viewBox="0 0 512 512" fill="none" xmlns="http://www.w3.org/2000/svg">
<path d="M124.235 199.988L108.758 182.864C106.906 180.815 107.066 177.654 109.114 175.802C111.163 173.95 114.327 174.111 116.176 176.159L131.653 193.283C133.505 195.332 133.345 198.493 131.297 200.345C130.341 201.21 129.141 201.636 127.946 201.636C126.581 201.636 125.221 201.079 124.235 199.988ZM327.093 259.708C326.815 256.961 324.365 254.951 321.614 255.237L298.649 257.564C295.902 257.842 293.9 260.295 294.178 263.043C294.44 265.619 296.612 267.539 299.147 267.539C299.315 267.539 299.486 267.531 299.657 267.514L322.622 265.187C325.369 264.909 327.371 262.456 327.093 259.708ZM277.571 176.159L262.095 193.283C260.244 195.332 260.404 198.494 262.452 200.345C263.409 201.21 264.608 201.636 265.803 201.636C267.168 201.636 268.528 201.08 269.515 199.989L284.991 182.865C286.842 180.816 286.682 177.655 284.634 175.803C282.583 173.95 279.422 174.113 277.572 176.16L277.571 176.159ZM95.0981 257.564L72.1341 255.237C69.3931 254.952 66.9341 256.961 66.6551 259.708C66.3761 262.455 68.3791 264.908 71.1261 265.187L94.0901 267.514C94.2611 267.532 94.4321 267.539 94.6001 267.539C97.1351 267.539 99.3081 265.619 99.5691 263.043C99.8471 260.296 97.8451 257.843 95.0981 257.564ZM196.874 175.103C199.636 175.103 201.874 172.864 201.874 170.103V147.021C201.874 144.26 199.636 142.021 196.874 142.021C194.112 142.021 191.874 144.26 191.874 147.021V170.103C191.874 172.864 194.112 175.103 196.874 175.103ZM281.698 264.82C281.698 294.322 269.427 311.44 258.602 326.544C249.579 339.133 241.786 350.004 241.786 366.304V373.758C241.786 384.097 233.5 392.521 223.223 392.781V395.617C223.223 404.303 216.158 411.368 207.472 411.368H186.277C177.591 411.368 170.526 404.303 170.526 395.617V392.781C160.248 392.521 151.963 384.097 151.963 373.758V366.304C151.963 350.004 144.17 339.133 135.147 326.544C124.321 311.44 112.05 294.322 112.05 264.82C112.05 241.152 121.328 221.254 138.881 207.276C154.24 195.046 174.836 188.31 196.875 188.31C218.914 188.31 239.51 195.045 254.869 207.276C272.421 221.254 281.699 241.152 281.699 264.82H281.698ZM213.222 395.617V392.805H180.525V395.617C180.525 398.788 183.105 401.368 186.276 401.368H207.471C210.642 401.368 213.222 398.788 213.222 395.617ZM231.785 373.758V371.303H161.961V373.758C161.961 378.747 166.02 382.806 171.009 382.806H222.738C227.727 382.806 231.785 378.747 231.785 373.758ZM271.697 264.82C271.697 219.124 232.911 198.31 196.873 198.31C160.835 198.31 122.048 219.123 122.048 264.82C122.048 291.109 132.838 306.161 143.272 320.717C151.651 332.406 160.265 344.474 161.722 361.302H191.873V324.502C191.873 323.62 191.88 322.754 191.894 321.898C181.29 318.16 172.516 304.852 169.85 287.723C169.425 284.994 171.293 282.438 174.022 282.013C176.755 281.591 179.307 283.456 179.731 286.185C181.704 298.857 187.12 307.479 192.489 311.071C194.564 289.814 201.546 279.268 208.147 276.496C211.953 274.9 215.913 275.603 218.743 278.377C223.63 283.17 223.949 292.574 219.596 303.532C214.407 316.598 207.492 321.178 201.886 322.496C201.877 323.153 201.873 323.822 201.873 324.502V361.302H232.024C233.482 344.474 242.096 332.406 250.473 320.717C260.908 306.16 271.697 291.109 271.697 264.82ZM210.302 299.841C213.542 291.684 212.733 286.985 211.927 285.743C210.145 286.548 204.404 292.702 202.495 311.345C205.403 309.305 208.105 305.371 210.302 299.841ZM487.868 162.989L415.498 288.338V459.61C415.498 462.372 413.26 464.61 410.498 464.61H374.108V501C374.108 503.762 371.87 506 369.108 506H24.6411C21.8791 506 19.6411 503.762 19.6411 501V52.39C19.6411 49.629 21.8791 47.39 24.6411 47.39H61.0291V11C61.0291 8.239 63.2671 6 66.0291 6H410.498C413.26 6 415.498 8.239 415.498 11V154.048L429.719 129.417C434.187 121.678 441.43 116.134 450.114 113.808C458.798 111.48 467.842 112.661 475.581 117.129C491.612 126.384 497.125 146.958 487.869 162.99L487.868 162.989ZM304.674 116.825H357.038L304.674 64.461V116.825ZM332.717 317.429L348.801 326.715L434.934 177.528L418.85 168.242L332.717 317.429ZM322.159 382.861L332.154 375.093L323.889 370.322L322.159 382.861ZM366.439 348.445L329.824 327.306L325.365 359.627L340.678 368.468L366.439 348.446V348.445ZM459.679 191.815L443.595 182.529L357.462 331.716L373.547 341.002L459.68 191.815H459.679ZM464.679 183.155L471.431 171.46L430.602 147.887L423.85 159.582L464.679 183.155ZM71.0291 47.39H299.674C301 47.39 302.272 47.917 303.209 48.854L372.644 118.29C373.582 119.228 374.109 120.499 374.109 121.826V225.738L405.499 171.369V16H71.0291V47.39ZM364.108 496V362.922L318.595 398.296C317.698 398.994 316.615 399.349 315.526 399.349C314.667 399.349 313.804 399.127 313.027 398.679C311.266 397.662 310.297 395.68 310.574 393.665L320.933 318.576C321.022 317.936 321.233 317.319 321.556 316.76L364.108 243.058V126.825H299.673C296.911 126.825 294.673 124.586 294.673 121.825V57.39H29.6411V496H364.108ZM405.498 305.659L379.706 350.332C379.383 350.892 378.954 351.383 378.444 351.779L374.108 355.149V454.61H405.498V305.659ZM470.58 125.788C465.154 122.655 458.806 121.831 452.701 123.466C446.597 125.101 441.512 128.99 438.379 134.416L435.601 139.227L476.43 162.8L479.208 157.989C485.707 146.732 481.837 132.286 470.58 125.788Z" fill="#626767"/>
</svg>
