<svg width="512" height="512" viewBox="0 0 512 512" fill="none" xmlns="http://www.w3.org/2000/svg">
<path d="M506.83 177.71L489.664 160.544C482.78 153.661 471.583 153.661 464.699 160.544L392.759 232.486V77.4797C392.759 59.0688 377.78 44.0899 359.368 44.0899H331.771V35.1429C331.771 20.818 320.117 9.16309 305.751 9.16309C291.425 9.16309 279.771 20.818 279.771 35.1429V44.0899H145.065V35.1429C145.065 20.818 133.411 9.16309 119.044 9.16309C104.719 9.16309 93.0655 20.818 93.0655 35.1429V44.0899H61.4196H33.3908C14.9789 44.0899 0 59.0688 0 77.4797V469.447C0 487.858 14.9789 502.837 33.3908 502.837H61.4196H331.339H359.368C377.78 502.837 392.759 487.858 392.759 469.447V355.28C392.759 351.138 389.402 347.78 385.259 347.78C381.116 347.78 377.759 351.138 377.759 355.28V469.447C377.759 479.587 369.509 487.837 359.368 487.837H331.339H61.4196C51.2797 487.837 43.0297 479.587 43.0297 469.447V77.4797C43.0297 67.3398 51.2797 59.0898 61.4196 59.0898H93.0655V70.8377C93.0655 85.1626 104.719 96.8176 119.044 96.8176H119.084C133.41 96.8176 145.064 85.1626 145.064 70.8377V59.0898H279.77V70.8377C279.77 85.1626 291.424 96.8176 305.75 96.8176H305.79C320.115 96.8176 331.769 85.1626 331.769 70.8377V59.0898H359.366C369.507 59.0898 377.757 67.3398 377.757 77.4797V247.486L287.535 337.706C286.687 338.705 285.841 339.595 285.432 341.828L280.454 373.025H227.976C223.833 373.025 220.476 376.383 220.476 380.525C220.476 384.667 223.833 388.025 227.976 388.025H286.899C294.225 386.211 323.723 384.074 329.666 379.836L506.827 202.674C510.162 199.34 511.998 194.907 511.998 190.192C511.998 185.477 510.164 181.044 506.83 177.71ZM33.5698 487.837H33.3908C23.2499 487.837 14.9999 479.588 14.9999 469.447V77.4797C14.9999 67.3398 23.2499 59.0898 33.3908 59.0898H33.5698C30.0728 64.3678 28.0298 70.6887 28.0298 77.4797V469.447C28.0298 476.239 30.0728 482.559 33.5698 487.837ZM130.065 70.8377C130.065 76.8917 125.139 81.8177 119.085 81.8177H119.045C112.991 81.8177 108.066 76.8917 108.066 70.8377V51.6678C108.066 51.6418 108.07 51.6168 108.07 51.5908C108.07 51.5648 108.066 51.5398 108.066 51.5138V35.1439C108.066 29.09 112.992 24.164 119.086 24.164C125.141 24.164 130.066 29.09 130.066 35.1439V70.8377H130.065ZM305.792 81.8177H305.752C299.697 81.8177 294.772 76.8917 294.772 70.8377V35.1429C294.772 29.089 299.698 24.163 305.793 24.163C311.847 24.163 316.772 29.089 316.772 35.1429V51.5318C316.772 51.5518 316.769 51.5698 316.769 51.5898C316.769 51.6098 316.772 51.6278 316.772 51.6478V70.8377C316.771 76.8917 311.846 81.8177 305.792 81.8177ZM295.893 371.481L298.82 350.948C298.962 349.106 299.67 346.697 299.67 346.697L445.655 200.802L466.571 221.718L320.499 367.527C320.499 367.527 318.232 368.377 316.673 368.519C315.114 368.661 295.893 371.481 295.893 371.481ZM496.223 192.067L477.029 211.261L456.112 190.344L475.306 171.15C476.14 171.044 475.596 169.559 479.056 171.15L496.222 188.316C496.329 189.151 497.815 188.607 496.223 192.067Z" fill="white"/>
<path d="M191.482 193.077H146.404C142.261 193.077 138.904 196.435 138.904 200.577C138.904 204.719 142.261 208.077 146.404 208.077H191.482C195.625 208.077 198.982 204.719 198.982 200.577C198.982 196.435 195.625 193.077 191.482 193.077Z" fill="white"/>
<path d="M91.7845 208.077H110.885C115.028 208.077 118.385 204.719 118.385 200.577C118.385 196.435 115.028 193.077 110.885 193.077H91.7845C87.6415 193.077 84.2845 196.435 84.2845 200.577C84.2845 204.719 87.6425 208.077 91.7845 208.077Z" fill="white"/>
<path d="M198.983 228.822C198.983 224.68 195.626 221.322 191.483 221.322H91.7845C87.6415 221.322 84.2845 224.68 84.2845 228.822C84.2845 232.964 87.6415 236.322 91.7845 236.322H191.483C195.626 236.322 198.983 232.964 198.983 228.822Z" fill="white"/>
<path d="M91.7845 264.567H149.611C153.754 264.567 157.111 261.209 157.111 257.067C157.111 252.925 153.754 249.567 149.611 249.567H91.7845C87.6415 249.567 84.2845 252.925 84.2845 257.067C84.2845 261.209 87.6425 264.567 91.7845 264.567Z" fill="white"/>
<path d="M227.978 344.78C223.835 344.78 220.478 348.138 220.478 352.28C220.478 356.422 223.835 359.78 227.978 359.78H257.88C262.023 359.78 265.38 356.422 265.38 352.28C265.38 348.138 262.023 344.78 257.88 344.78H227.978Z" fill="white"/>
<path d="M243.702 288.63H311.067C324.418 288.63 335.279 277.768 335.279 264.418V201.853C335.279 188.502 324.418 177.641 311.067 177.641H243.702C230.351 177.641 219.49 188.502 219.49 201.853V264.418C219.49 277.768 230.352 288.63 243.702 288.63ZM234.49 201.852C234.49 196.772 238.623 192.64 243.702 192.64H311.067C316.146 192.64 320.279 196.772 320.279 201.852V264.417C320.279 269.497 316.146 273.629 311.067 273.629H243.702C238.623 273.629 234.49 269.496 234.49 264.417V201.852Z" fill="white"/>
<path d="M77.6145 409.072C77.6965 421.873 87.9515 433.035 101.827 433.284H169.192C182.543 433.284 193.404 422.422 193.404 409.072V346.507C193.517 334.393 183.086 322.265 169.192 322.295H101.827C88.4755 322.295 77.6145 333.157 77.6145 346.507V409.072ZM169.192 418.284H107.021L178.404 350.349V409.071C178.404 414.152 174.271 418.284 169.192 418.284ZM92.6145 346.507C92.6145 341.427 96.7475 337.295 101.827 337.295C103.925 337.369 168.124 337.155 170.289 337.367L92.8395 411.072C92.1485 407.12 92.8655 349.875 92.6145 346.507Z" fill="white"/>
<path d="M270.54 130.603C270.54 126.461 267.183 123.103 263.04 123.103H157.293C153.15 123.103 149.793 126.461 149.793 130.603C149.793 134.745 153.15 138.103 157.293 138.103H263.04C267.183 138.103 270.54 134.745 270.54 130.603Z" fill="white"/>
<path d="M227.978 400.003C223.835 400.003 220.478 403.361 220.478 407.503C220.478 411.645 223.835 415.003 227.978 415.003H324.628C328.771 415.003 332.128 411.645 332.128 407.503C332.128 403.361 328.771 400.003 324.628 400.003H227.978Z" fill="white"/>
</svg>
