<svg width="539" height="539" viewBox="0 0 539 539" fill="none" xmlns="http://www.w3.org/2000/svg">
<path d="M485.499 247.477H448.221V292.753H438.627V267.118H391.217V307.704H384.943V212.452H343.742V238.605H322.624V271.128H316.231V250.667H278.771V311.725H267.818V262.083H233.559V224.397H210.264V202.934H183.325V298.143H174.269V258.407H129.877V315.283H123.743V268.864H78.7262V227.038H53.501V421.832H485.499V247.477Z" fill="#EBEBEB"/>
<path d="M474.621 261.826H480.928V253.17H474.621V261.826Z" fill="white"/>
<path d="M463.691 261.826H469.997V253.17H463.691V261.826Z" fill="white"/>
<path d="M452.749 261.826H459.055V253.17H452.749V261.826Z" fill="white"/>
<path d="M474.621 274.848H480.928V266.191H474.621V274.848Z" fill="white"/>
<path d="M463.691 274.848H469.997V266.191H463.691V274.848Z" fill="white"/>
<path d="M452.749 274.848H459.055V266.191H452.749V274.848Z" fill="white"/>
<path d="M474.621 287.869H480.928V279.213H474.621V287.869Z" fill="white"/>
<path d="M463.691 287.869H469.997V279.213H463.691V287.869Z" fill="white"/>
<path d="M452.749 287.869H459.055V279.213H452.749V287.869Z" fill="white"/>
<path d="M474.621 300.902H480.928V292.246H474.621V300.902Z" fill="white"/>
<path d="M463.691 300.902H469.997V292.246H463.691V300.902Z" fill="white"/>
<path d="M452.749 300.902H459.055V292.246H452.749V300.902Z" fill="white"/>
<path d="M256.251 275.506H262.558V268.283H256.251V275.506Z" fill="white"/>
<path d="M245.32 275.506H251.626V268.283H245.32V275.506Z" fill="white"/>
<path d="M234.379 275.506H240.685V268.283H234.379V275.506Z" fill="white"/>
<path d="M256.251 286.361H262.558V279.139H256.251V286.361Z" fill="white"/>
<path d="M245.32 286.361H251.626V279.139H245.32V286.361Z" fill="white"/>
<path d="M234.379 286.361H240.685V279.139H234.379V286.361Z" fill="white"/>
<path d="M256.251 297.227H262.558V290.004H256.251V297.227Z" fill="white"/>
<path d="M245.32 297.227H251.626V290.004H245.32V297.227Z" fill="white"/>
<path d="M234.379 297.227H240.685V290.004H234.379V297.227Z" fill="white"/>
<path d="M256.251 308.094H262.558V300.871H256.251V308.094Z" fill="white"/>
<path d="M245.32 308.094H251.626V300.871H245.32V308.094Z" fill="white"/>
<path d="M234.379 308.094H240.685V300.871H234.379V308.094Z" fill="white"/>
<path d="M256.251 319.229H262.558V312.006H256.251V319.229Z" fill="white"/>
<path d="M245.32 319.229H251.626V312.006H245.32V319.229Z" fill="white"/>
<path d="M234.379 319.229H240.685V312.006H234.379V319.229Z" fill="white"/>
<path d="M256.251 330.365H262.558V323.143H256.251V330.365Z" fill="white"/>
<path d="M245.32 330.365H251.626V323.143H245.32V330.365Z" fill="white"/>
<path d="M234.379 330.365H240.685V323.143H234.379V330.365Z" fill="white"/>
<path d="M256.251 341.49H262.558V334.268H256.251V341.49Z" fill="white"/>
<path d="M245.32 341.49H251.626V334.268H245.32V341.49Z" fill="white"/>
<path d="M234.379 341.49H240.685V334.268H234.379V341.49Z" fill="white"/>
<path d="M256.251 352.625H262.558V345.402H256.251V352.625Z" fill="white"/>
<path d="M245.32 352.625H251.626V345.402H245.32V352.625Z" fill="white"/>
<path d="M234.379 352.625H240.685V345.402H234.379V352.625Z" fill="white"/>
<path d="M396.93 278.082H433.237V272.67H396.93V278.082Z" fill="white"/>
<path d="M396.93 288.592H433.237V283.18H396.93V288.592Z" fill="white"/>
<path d="M396.93 299.092H433.237V293.68H396.93V299.092Z" fill="white"/>
<path d="M396.93 309.592H433.237V304.18H396.93V309.592Z" fill="white"/>
<path d="M396.93 320.102H433.237V314.69H396.93V320.102Z" fill="white"/>
<path d="M396.93 330.602H433.237V325.19H396.93V330.602Z" fill="white"/>
<path d="M396.93 341.113H433.237V335.702H396.93V341.113Z" fill="white"/>
<path d="M396.93 351.602H433.237V346.19H396.93V351.602Z" fill="white"/>
<path d="M135.504 268.865H168.89V263.454H135.504V268.865Z" fill="white"/>
<path d="M135.504 279.375H168.89V273.963H135.504V279.375Z" fill="white"/>
<path d="M135.504 289.887H168.89V284.475H135.504V289.887Z" fill="white"/>
<path d="M135.504 300.385H168.89V294.973H135.504V300.385Z" fill="white"/>
<path d="M135.504 310.885H168.89V305.473H135.504V310.885Z" fill="white"/>
<path d="M135.504 321.396H168.89V315.985H135.504V321.396Z" fill="white"/>
<path d="M135.504 331.896H168.89V326.485H135.504V331.896Z" fill="white"/>
<path d="M135.504 342.406H168.89V336.995H135.504V342.406Z" fill="white"/>
<path d="M135.504 352.377H168.89V346.965H135.504V352.377Z" fill="white"/>
<path d="M135.504 362.359H168.89V356.948H135.504V362.359Z" fill="white"/>
<path d="M135.504 372.342H168.89V366.93H135.504V372.342Z" fill="white"/>
<path d="M135.504 382.314H168.89V376.903H135.504V382.314Z" fill="white"/>
<path d="M135.504 392.297H168.89V386.885H135.504V392.297Z" fill="white"/>
<path d="M81.5399 281.553H116.801V276.141H81.5399V281.553Z" fill="white"/>
<path d="M81.5399 292.062H116.801V286.651H81.5399V292.062Z" fill="white"/>
<path d="M81.5399 302.574H116.801V297.163H81.5399V302.574Z" fill="white"/>
<path d="M81.5399 313.074H116.801V307.663H81.5399V313.074Z" fill="white"/>
<path d="M81.5399 323.574H116.801V318.163H81.5399V323.574Z" fill="white"/>
<path d="M81.5399 334.084H116.801V328.672H81.5399V334.084Z" fill="white"/>
<path d="M81.5399 344.584H116.801V339.172H81.5399V344.584Z" fill="white"/>
<path d="M81.5399 355.094H116.801V349.682H81.5399V355.094Z" fill="white"/>
<path d="M81.5399 364.494H116.801V359.083H81.5399V364.494Z" fill="white"/>
<path d="M81.5399 373.895H116.801V368.483H81.5399V373.895Z" fill="white"/>
<path d="M81.5399 383.295H116.801V377.883H81.5399V383.295Z" fill="white"/>
<path d="M294.057 260.801H305.268V255.572H294.057V260.801Z" fill="white"/>
<path d="M294.057 270.945H305.268V265.717H294.057V270.945Z" fill="white"/>
<path d="M294.057 281.09H305.268V275.862H294.057V281.09Z" fill="white"/>
<path d="M294.057 291.234H305.268V286.006H294.057V291.234Z" fill="white"/>
<path d="M294.057 301.377H305.268V296.149H294.057V301.377Z" fill="white"/>
<path d="M294.057 311.521H305.268V306.293H294.057V311.521Z" fill="white"/>
<path d="M294.057 321.666H305.268V316.438H294.057V321.666Z" fill="white"/>
<path d="M294.057 331.809H305.268V326.58H294.057V331.809Z" fill="white"/>
<path d="M278.803 260.801H290.014V255.572H278.803V260.801Z" fill="white"/>
<path d="M278.803 270.945H290.014V265.717H278.803V270.945Z" fill="white"/>
<path d="M278.803 281.09H290.014V275.862H278.803V281.09Z" fill="white"/>
<path d="M278.803 291.234H290.014V286.006H278.803V291.234Z" fill="white"/>
<path d="M278.803 301.377H290.014V296.149H278.803V301.377Z" fill="white"/>
<path d="M278.803 311.521H290.014V306.293H278.803V311.521Z" fill="white"/>
<path d="M278.803 321.666H290.014V316.438H278.803V321.666Z" fill="white"/>
<path d="M278.803 331.809H290.014V326.58H278.803V331.809Z" fill="white"/>
<path d="M367.005 226.188H378.69V217.941H367.005V226.188Z" fill="white"/>
<path d="M349.595 226.188H361.281V217.941H349.595V226.188Z" fill="white"/>
<path d="M367.005 238.293H378.69V230.046H367.005V238.293Z" fill="white"/>
<path d="M349.595 238.293H361.281V230.046H349.595V238.293Z" fill="white"/>
<path d="M367.005 250.41H378.69V242.163H367.005V250.41Z" fill="white"/>
<path d="M349.595 250.41H361.281V242.163H349.595V250.41Z" fill="white"/>
<path d="M367.005 262.516H378.69V254.269H367.005V262.516Z" fill="white"/>
<path d="M349.595 262.516H361.281V254.269H349.595V262.516Z" fill="white"/>
<path d="M367.005 274.633H378.69V266.386H367.005V274.633Z" fill="white"/>
<path d="M349.595 274.633H361.281V266.386H349.595V274.633Z" fill="white"/>
<path d="M367.005 286.748H378.69V278.501H367.005V286.748Z" fill="white"/>
<path d="M349.595 286.748H361.281V278.501H349.595V286.748Z" fill="white"/>
<path d="M367.005 298.855H378.69V290.609H367.005V298.855Z" fill="white"/>
<path d="M349.595 298.855H361.281V290.609H349.595V298.855Z" fill="white"/>
<path d="M367.005 310.971H378.69V302.724H367.005V310.971Z" fill="white"/>
<path d="M349.595 310.971H361.281V302.724H349.595V310.971Z" fill="white"/>
<path d="M328.003 250.41H339.688V242.163H328.003V250.41Z" fill="white"/>
<path d="M328.003 262.516H339.688V254.269H328.003V262.516Z" fill="white"/>
<path d="M328.003 274.633H339.688V266.386H328.003V274.633Z" fill="white"/>
<path d="M328.003 286.748H339.688V278.501H328.003V286.748Z" fill="white"/>
<path d="M328.003 298.855H339.688V290.609H328.003V298.855Z" fill="white"/>
<path d="M328.003 310.971H339.688V302.724H328.003V310.971Z" fill="white"/>
<path d="M367.005 322.938H378.69V314.691H367.005V322.938Z" fill="white"/>
<path d="M349.595 322.938H361.281V314.691H349.595V322.938Z" fill="white"/>
<path d="M328.003 322.938H339.688V314.691H328.003V322.938Z" fill="white"/>
<path d="M367.005 334.893H378.69V326.646H367.005V334.893Z" fill="white"/>
<path d="M349.595 334.893H361.281V326.646H349.595V334.893Z" fill="white"/>
<path d="M328.003 334.893H339.688V326.646H328.003V334.893Z" fill="white"/>
<path d="M367.005 346.857H378.69V338.611H367.005V346.857Z" fill="white"/>
<path d="M349.595 346.857H361.281V338.611H349.595V346.857Z" fill="white"/>
<path d="M328.003 346.857H339.688V338.611H328.003V346.857Z" fill="white"/>
<path d="M367.005 358.824H378.69V350.578H367.005V358.824Z" fill="white"/>
<path d="M349.595 358.824H361.281V350.578H349.595V358.824Z" fill="white"/>
<path d="M328.003 358.824H339.688V350.578H328.003V358.824Z" fill="white"/>
<path d="M367.005 370.789H378.69V362.542H367.005V370.789Z" fill="white"/>
<path d="M349.595 370.789H361.281V362.542H349.595V370.789Z" fill="white"/>
<path d="M328.003 370.789H339.688V362.542H328.003V370.789Z" fill="white"/>
<path d="M222.499 236.924H228.805V229.701H222.499V236.924Z" fill="white"/>
<path d="M211.568 236.924H217.875V229.701H211.568V236.924Z" fill="white"/>
<path d="M222.499 247.789H228.805V240.566H222.499V247.789Z" fill="white"/>
<path d="M211.568 247.789H217.875V240.566H211.568V247.789Z" fill="white"/>
<path d="M222.499 258.656H228.805V251.434H222.499V258.656Z" fill="white"/>
<path d="M211.568 258.656H217.875V251.434H211.568V258.656Z" fill="white"/>
<path d="M222.499 269.533H228.805V262.311H222.499V269.533Z" fill="white"/>
<path d="M211.568 269.533H217.875V262.311H211.568V269.533Z" fill="white"/>
<path d="M222.499 280.67H228.805V273.447H222.499V280.67Z" fill="white"/>
<path d="M211.568 280.67H217.875V273.447H211.568V280.67Z" fill="white"/>
<path d="M222.499 291.793H228.805V284.57H222.499V291.793Z" fill="white"/>
<path d="M211.568 291.793H217.875V284.57H211.568V291.793Z" fill="white"/>
<path d="M222.499 302.93H228.805V295.707H222.499V302.93Z" fill="white"/>
<path d="M211.568 302.93H217.875V295.707H211.568V302.93Z" fill="white"/>
<path d="M222.499 314.066H228.805V306.844H222.499V314.066Z" fill="white"/>
<path d="M211.568 314.066H217.875V306.844H211.568V314.066Z" fill="white"/>
<path d="M222.499 325.32H228.805V318.098H222.499V325.32Z" fill="white"/>
<path d="M211.568 325.32H217.875V318.098H211.568V325.32Z" fill="white"/>
<path d="M222.499 336.562H228.805V329.34H222.499V336.562Z" fill="white"/>
<path d="M211.568 336.562H217.875V329.34H211.568V336.562Z" fill="white"/>
<path d="M222.499 347.818H228.805V340.596H222.499V347.818Z" fill="white"/>
<path d="M211.568 347.818H217.875V340.596H211.568V347.818Z" fill="white"/>
<path d="M222.499 359.082H228.805V351.859H222.499V359.082Z" fill="white"/>
<path d="M211.568 359.082H217.875V351.859H211.568V359.082Z" fill="white"/>
<path d="M68.4637 239.381H74.77V230.875H68.4637V239.381Z" fill="white"/>
<path d="M57.5433 239.381H63.8496V230.875H57.5433V239.381Z" fill="white"/>
<path d="M68.4637 252.188H74.77V243.682H68.4637V252.188Z" fill="white"/>
<path d="M57.5433 252.188H63.8496V243.682H57.5433V252.188Z" fill="white"/>
<path d="M68.4637 264.984H74.77V256.479H68.4637V264.984Z" fill="white"/>
<path d="M57.5433 264.984H63.8496V256.479H57.5433V264.984Z" fill="white"/>
<path d="M68.4637 277.791H74.77V269.286H68.4637V277.791Z" fill="white"/>
<path d="M57.5433 277.791H63.8496V269.286H57.5433V277.791Z" fill="white"/>
<path d="M68.4637 290.91H74.77V282.405H68.4637V290.91Z" fill="white"/>
<path d="M57.5433 290.91H63.8496V282.405H57.5433V290.91Z" fill="white"/>
<path d="M68.4637 304.029H74.77V295.524H68.4637V304.029Z" fill="white"/>
<path d="M57.5433 304.029H63.8496V295.524H57.5433V304.029Z" fill="white"/>
<path d="M68.4637 317.139H74.77V308.633H68.4637V317.139Z" fill="white"/>
<path d="M57.5433 317.139H63.8496V308.633H57.5433V317.139Z" fill="white"/>
<path d="M68.4637 330.268H74.77V321.762H68.4637V330.268Z" fill="white"/>
<path d="M57.5433 330.268H63.8496V321.762H57.5433V330.268Z" fill="white"/>
<path d="M68.4637 343.527H74.77V335.022H68.4637V343.527Z" fill="white"/>
<path d="M57.5433 343.527H63.8496V335.022H57.5433V343.527Z" fill="white"/>
<path d="M68.4637 356.775H74.77V348.27H68.4637V356.775Z" fill="white"/>
<path d="M57.5433 356.775H63.8496V348.27H57.5433V356.775Z" fill="white"/>
<path d="M68.4637 370.035H74.77V361.53H68.4637V370.035Z" fill="white"/>
<path d="M57.5433 370.035H63.8496V361.53H57.5433V370.035Z" fill="white"/>
<path d="M68.4637 383.295H74.77V374.79H68.4637V383.295Z" fill="white"/>
<path d="M57.5433 383.295H63.8496V374.79H57.5433V383.295Z" fill="white"/>
<path d="M199.106 236.924H205.413V229.701H199.106V236.924Z" fill="white"/>
<path d="M188.176 236.924H194.482V229.701H188.176V236.924Z" fill="white"/>
<path d="M199.106 225.787H205.413V218.565H199.106V225.787Z" fill="white"/>
<path d="M188.176 225.787H194.482V218.565H188.176V225.787Z" fill="white"/>
<path d="M199.106 214.652H205.413V207.43H199.106V214.652Z" fill="white"/>
<path d="M188.176 214.652H194.482V207.43H188.176V214.652Z" fill="white"/>
<path d="M199.106 247.789H205.413V240.566H199.106V247.789Z" fill="white"/>
<path d="M188.176 247.789H194.482V240.566H188.176V247.789Z" fill="white"/>
<path d="M199.106 258.656H205.413V251.434H199.106V258.656Z" fill="white"/>
<path d="M188.176 258.656H194.482V251.434H188.176V258.656Z" fill="white"/>
<path d="M199.106 269.533H205.413V262.311H199.106V269.533Z" fill="white"/>
<path d="M188.176 269.533H194.482V262.311H188.176V269.533Z" fill="white"/>
<path d="M199.106 280.67H205.413V273.447H199.106V280.67Z" fill="white"/>
<path d="M188.176 280.67H194.482V273.447H188.176V280.67Z" fill="white"/>
<path d="M199.106 291.793H205.413V284.57H199.106V291.793Z" fill="white"/>
<path d="M188.176 291.793H194.482V284.57H188.176V291.793Z" fill="white"/>
<path d="M199.106 302.93H205.413V295.707H199.106V302.93Z" fill="white"/>
<path d="M188.176 302.93H194.482V295.707H188.176V302.93Z" fill="white"/>
<path d="M199.106 314.066H205.413V306.844H199.106V314.066Z" fill="white"/>
<path d="M188.176 314.066H194.482V306.844H188.176V314.066Z" fill="white"/>
<path d="M199.106 325.32H205.413V318.098H199.106V325.32Z" fill="white"/>
<path d="M188.176 325.32H194.482V318.098H188.176V325.32Z" fill="white"/>
<path d="M199.106 336.562H205.413V329.34H199.106V336.562Z" fill="white"/>
<path d="M188.176 336.562H194.482V329.34H188.176V336.562Z" fill="white"/>
<path d="M199.106 347.818H205.413V340.596H199.106V347.818Z" fill="white"/>
<path d="M188.176 347.818H194.482V340.596H188.176V347.818Z" fill="white"/>
<path d="M199.106 359.082H205.413V351.859H199.106V359.082Z" fill="white"/>
<path d="M188.176 359.082H194.482V351.859H188.176V359.082Z" fill="white"/>
<path d="M480.907 187.411H364.838C364.838 187.411 376.351 155.977 394.063 155.977C411.774 155.977 417.315 177.677 417.315 177.677C417.315 177.677 429.27 165.883 439.091 165.883C448.912 165.883 457.417 181.46 457.417 181.46C457.417 181.46 471.312 173.084 480.907 187.411Z" fill="#EBEBEB"/>
<path d="M415.946 125.242H361.701C361.701 125.242 373.818 107.682 383.369 107.682C392.92 107.682 395.744 119.389 395.744 119.389C395.744 119.389 402.482 113.923 408.68 114.904C414.879 115.885 415.946 125.242 415.946 125.242Z" fill="#EBEBEB"/>
<path d="M163.748 178.055H58.104C58.104 178.055 72.5708 145.715 88.0508 143.731C103.531 141.748 110.926 167.727 110.926 167.727C110.926 167.727 120.908 158.532 128.756 158.532C136.604 158.532 142.673 170.649 142.673 170.649C142.673 170.649 158.358 162.348 163.748 178.055Z" fill="#EBEBEB"/>
<path d="M264.164 98.0989H192.79C192.79 98.0989 205.046 74.6955 218.349 74.3829C231.651 74.0703 238.637 92.0945 238.637 92.0945C238.637 92.0945 259.324 75.4609 264.164 98.0989Z" fill="#EBEBEB"/>
<path d="M312.9 477.855C409.968 477.855 488.657 472.647 488.657 466.223C488.657 459.799 409.968 454.592 312.9 454.592C215.832 454.592 137.143 459.799 137.143 466.223C137.143 472.647 215.832 477.855 312.9 477.855Z" fill="#EBEBEB"/>
<path d="M522.118 421.832L458.958 422.091L395.809 422.188L269.5 422.36L143.191 422.188L80.0414 422.091L16.8813 421.832L80.0414 421.562L143.191 421.465L269.5 421.293L395.809 421.465L458.958 421.562L522.118 421.832Z" fill="#263238"/>
<path d="M261.62 255.098C279.859 274.07 334.654 358.51 338.923 361.033C338.923 361.033 338.923 416.259 308.405 405.231C277.887 394.203 249.912 295.124 243.94 263.538C240.793 246.862 246.722 239.618 261.62 255.098Z" fill="#D3766A"/>
<path d="M256.974 320.382L312.9 314.021C312.9 314.021 278.21 268.002 260.283 251.573C241.59 234.454 232.427 236.858 241.095 269.284C249.805 301.905 256.974 320.382 256.974 320.382Z" fill="#FFBABA"/>
<path d="M254.343 289.918C253.728 291.461 253.336 293.083 253.179 294.737C255.13 292.041 256.345 288.882 256.704 285.574C255.706 286.897 254.91 288.361 254.343 289.918ZM285.756 291.179C284.217 290.564 282.598 290.172 280.948 290.015C283.639 291.968 286.794 293.184 290.1 293.54C288.778 292.54 287.314 291.744 285.756 291.179ZM277.423 312.933C276.765 311.413 275.894 309.994 274.836 308.718C275.083 310.355 275.562 311.949 276.259 313.451C276.896 314.981 277.761 316.406 278.824 317.677C278.583 316.037 278.111 314.441 277.423 312.933ZM244.609 242.863C244.328 242.271 244.048 241.688 243.725 241.106C243.341 241.069 242.955 241.069 242.571 241.106C242.83 241.893 243.121 242.648 243.444 243.402C244.092 244.929 244.96 246.353 246.021 247.628C245.778 245.981 245.303 244.377 244.609 242.863ZM309.062 308.988L307.984 309.419C306.459 310.076 305.033 310.943 303.748 311.996C305.391 311.752 306.992 311.276 308.502 310.583C308.933 310.389 309.353 310.185 309.774 309.958L309.062 308.988ZM265.942 264.564C264.42 265.216 262.998 266.08 261.717 267.129C263.36 266.893 264.962 266.421 266.471 265.728C267.994 265.074 269.417 264.206 270.696 263.151C269.045 263.389 267.436 263.864 265.921 264.564H265.942ZM262.191 264.661C262.127 264.704 262.066 264.751 262.008 264.801H262.202C262.202 264.801 262.169 264.693 262.169 264.661H262.191Z" fill="white"/>
<path d="M259.658 310.323C260.962 310.022 262.331 309.903 263.657 309.72L267.775 309.148C270.546 308.76 273.327 308.415 276.108 308.07C281.67 307.424 287.233 306.744 292.806 306.195C294.337 306.044 295.879 305.893 297.409 305.774C298.94 305.656 300.643 305.656 302.26 305.537C302.357 305.537 302.357 305.677 302.26 305.688C300.891 305.893 299.533 306.205 298.164 306.421C296.795 306.637 295.34 306.831 293.927 307.003C291.157 307.359 288.365 307.682 285.584 307.995C280.107 308.588 274.62 309.213 269.123 309.698L264.53 310.086C262.924 310.226 261.296 310.464 259.679 310.453C259.667 310.448 259.656 310.44 259.647 310.43C259.639 310.42 259.633 310.408 259.631 310.394C259.629 310.381 259.63 310.368 259.635 310.355C259.639 310.343 259.647 310.332 259.658 310.323Z" fill="#263238"/>
<path opacity="0.1" d="M284.107 317.298L256.984 320.381C256.984 320.381 249.815 301.904 241.094 269.284C237.418 255.529 236.955 247.174 239.068 243.412L284.107 317.298Z" fill="black"/>
<path d="M272.486 435.404H187.421C186.721 432.666 186.041 430.014 185.362 427.319C184.586 424.268 183.821 421.293 183.088 418.393C182.926 417.746 182.753 417.099 182.592 416.463C182.031 414.243 181.481 412.087 180.942 409.995C180.619 408.712 180.296 407.451 179.983 406.201C179.67 404.95 179.336 403.678 179.024 402.46C178.937 402.137 178.862 401.813 178.776 401.501L178.517 400.423L178.194 399.161C178.075 398.719 177.967 398.288 177.859 397.857C177.644 397.038 177.439 396.229 177.245 395.442C176.943 394.278 176.652 393.135 176.372 392.025C176.253 391.54 176.124 391.055 176.005 390.581C175.8 389.804 175.606 389.05 175.423 388.306C175.294 387.81 175.175 387.325 175.057 386.851C174.553 384.896 174.086 383.063 173.655 381.353C173.537 380.9 173.429 380.458 173.31 380.027C173.127 379.283 172.944 378.572 172.771 377.871C172.649 377.44 172.541 377.019 172.448 376.61C172.07 375.144 171.726 373.807 171.434 372.632C171.348 372.319 171.273 372.017 171.197 371.726C171.003 370.95 170.82 370.26 170.669 369.646C170.604 369.398 170.55 369.161 170.486 368.945L170.313 368.266C170.313 368.115 170.238 367.964 170.206 367.835L170.055 367.253C170.055 367.159 170.033 367.073 169.99 366.994L169.796 366.229H252.597C252.597 366.229 255.324 375.629 259.69 390.785C260.574 393.868 261.534 397.253 262.558 400.735C265.458 410.847 268.843 422.64 272.486 435.404Z" fill="#37474F"/>
<path d="M201.349 435.404H199.193C196.045 422.375 192.994 409.32 190.04 396.241C189.322 393.057 188.603 389.873 187.884 386.69L187.69 385.795C187.687 385.764 187.694 385.733 187.712 385.707C187.73 385.681 187.756 385.662 187.786 385.655C187.816 385.647 187.848 385.65 187.876 385.664C187.904 385.678 187.926 385.701 187.938 385.73C187.938 385.827 187.992 385.924 188.025 386.021C188.98 389.442 189.933 392.866 190.881 396.295C194.525 409.295 198.014 422.332 201.349 435.404Z" fill="#263238"/>
<path d="M249.913 366.239L246.258 384.565L243.262 399.571L238.163 425.141L237.634 427.761L236.761 432.127L236.082 435.404H187.41C186.721 432.655 186.031 430.014 185.362 427.319C184.586 424.268 183.821 421.293 183.088 418.393C182.926 417.746 182.753 417.099 182.592 416.463C182.031 414.243 181.481 412.087 180.942 409.995C180.619 408.712 180.296 407.451 179.983 406.201C179.67 404.95 179.336 403.678 179.024 402.46C178.937 402.137 178.862 401.813 178.776 401.501L178.517 400.423L178.194 399.161C178.075 398.719 177.967 398.288 177.859 397.857C177.644 397.038 177.439 396.229 177.245 395.442C176.943 394.278 176.652 393.135 176.372 392.025C176.242 391.529 176.124 391.055 176.005 390.581C175.8 389.804 175.606 389.05 175.423 388.306C175.294 387.81 175.175 387.325 175.057 386.851C174.553 384.896 174.086 383.063 173.655 381.353C173.537 380.9 173.429 380.458 173.31 380.027C173.127 379.283 172.944 378.572 172.771 377.871C172.649 377.44 172.541 377.019 172.448 376.61C172.07 375.144 171.726 373.807 171.434 372.632C171.348 372.319 171.273 372.017 171.197 371.726C171.003 370.95 170.82 370.26 170.669 369.646C170.604 369.398 170.55 369.161 170.486 368.945L170.313 368.266C170.313 368.115 170.238 367.964 170.206 367.835L170.055 367.253C170.055 367.159 170.033 367.073 169.99 366.994L169.796 366.229L249.913 366.239Z" fill="#263238"/>
<path d="M249.924 366.208C249.924 366.661 249.579 371.598 248.781 379.144C248.555 381.3 248.285 383.758 247.972 386.345C247.487 390.431 246.894 394.969 246.14 399.702C244.868 408.013 243.208 417.079 241.052 425.94C240.286 429.174 239.445 432.29 238.551 435.383H131.667C132.928 419.095 134.082 404.359 134.998 392.748C136.281 376.406 137.154 366.176 137.154 366.176H234.109L249.924 366.208Z" fill="#37474F"/>
<path d="M249.697 376.029C249.578 379.856 249.417 383.672 249.169 387.477C248.91 391.606 248.533 395.724 247.994 399.842C247.994 399.993 247.994 400.144 247.94 400.295C247.437 404.154 246.858 408.002 246.204 411.84C245.59 415.419 245.126 419.278 243.552 422.62C242.954 423.901 242.104 425.049 241.051 425.994C240.089 426.875 238.909 427.485 237.634 427.762C237.425 427.814 237.213 427.851 236.998 427.87H236.815C236.854 427.892 236.886 427.926 236.907 427.966C236.928 428.006 236.937 428.051 236.933 428.096C236.933 429.379 236.933 430.683 236.783 431.955C236.783 432.009 236.783 432.063 236.783 432.117C236.653 433.195 236.448 434.327 236.244 435.427H234.411V435.362C234.734 434.155 235.004 432.936 235.306 431.718C235.608 430.5 236.039 429.26 236.33 427.999C236.346 427.952 236.376 427.911 236.416 427.881C235.253 427.936 234.1 427.635 233.114 427.016C232.127 426.397 231.353 425.492 230.897 424.42C230.437 422.781 230.407 421.051 230.81 419.397C231.145 417.241 231.468 415.02 231.802 412.832C232.427 408.811 233.236 404.833 233.958 400.834L234.282 399.012C235.715 390.873 237.214 382.734 239.014 374.671C239.079 374.336 239.154 374.002 239.23 373.668C239.305 373.334 239.639 373.506 239.618 373.722C239.564 374.261 239.51 374.8 239.445 375.35C239.129 378.447 238.77 381.53 238.367 384.599C237.85 388.21 237.494 391.843 236.987 395.454C236.815 396.683 236.642 397.912 236.459 399.141C235.629 405.081 234.767 410.999 233.753 416.939C233.279 419.688 231.597 424.614 235.521 425.466C236.428 425.667 237.376 425.549 238.205 425.132C239.953 424.079 241.259 422.428 241.881 420.486C242.852 417.25 243.555 413.94 243.984 410.589C244.63 406.996 245.205 403.37 245.708 399.712C246.355 395.178 247.031 390.646 247.735 386.119C248.087 383.812 248.446 381.505 248.813 379.198L249.33 375.964C249.341 375.738 249.697 375.802 249.697 376.029Z" fill="#263238"/>
<path d="M155.113 404.444C159.564 404.398 163.993 403.8 168.297 402.665C170.281 402.159 172.243 401.523 174.194 400.887C176.127 400.353 177.936 399.445 179.519 398.213C182.516 395.626 183.907 391.562 185.211 387.94C186.627 383.862 187.776 379.695 188.65 375.467C188.65 375.263 188.995 375.338 189.006 375.532C189.109 380.313 188.502 385.083 187.205 389.686C186.127 393.599 184.683 397.955 181.524 400.693C178.366 403.431 173.698 404.595 169.44 405.112C164.665 405.668 159.839 405.603 155.081 404.918C155.018 404.914 154.959 404.885 154.918 404.838C154.877 404.79 154.856 404.728 154.86 404.665C154.864 404.602 154.893 404.544 154.941 404.502C154.988 404.461 155.05 404.44 155.113 404.444Z" fill="#263238"/>
<path d="M147.686 375.596C147.449 381.576 147.197 387.562 146.931 393.556C146.32 407.505 145.648 421.454 144.915 435.404H142.91C143.83 421.426 144.797 407.455 145.81 393.491C146.248 387.519 146.701 381.55 147.168 375.585C147.17 375.517 147.198 375.452 147.248 375.404C147.297 375.357 147.364 375.331 147.432 375.332C147.501 375.334 147.566 375.362 147.614 375.412C147.661 375.461 147.687 375.528 147.686 375.596Z" fill="#263238"/>
<path d="M268.325 410.481L123.323 399.486C123.323 399.486 152.494 283.87 210.091 241.365C224.817 230.509 240.933 237.473 248.188 245.59C266.622 266.266 268.756 410.018 268.325 410.481Z" fill="#FFBABA"/>
<path d="M216.797 246.624C216.188 248.165 215.797 249.783 215.632 251.432C216.625 250.116 217.424 248.663 218.004 247.12C218.612 245.579 219.004 243.961 219.168 242.312C218.18 243.631 217.381 245.083 216.797 246.624ZM201.058 308.997C200.438 310.538 200.049 312.162 199.904 313.816C201.846 311.116 203.057 307.959 203.419 304.653C202.429 305.981 201.634 307.444 201.058 308.997ZM149.249 335.743C148.636 337.286 148.244 338.908 148.085 340.561C150.036 337.865 151.251 334.707 151.61 331.398C150.629 332.732 149.834 334.194 149.249 335.743ZM191.065 375.143C190.439 376.679 190.047 378.3 189.901 379.951C191.843 377.251 193.053 374.095 193.415 370.788C192.426 372.119 191.635 373.586 191.065 375.143ZM254.343 289.895C253.729 291.438 253.337 293.061 253.179 294.714C255.13 292.018 256.345 288.86 256.704 285.551C255.705 286.881 254.909 288.352 254.343 289.917V289.895ZM228.536 368.32C227.909 369.855 227.513 371.476 227.361 373.128C228.352 371.812 229.147 370.359 229.722 368.816C230.335 367.276 230.727 365.657 230.886 364.008C229.899 365.324 229.107 366.776 228.536 368.32ZM176.285 286.963C175.671 288.502 175.279 290.121 175.121 291.771C177.075 289.077 178.287 285.917 178.636 282.608C177.643 283.936 176.851 285.404 176.285 286.963ZM234.217 266.265C232.68 265.645 231.06 265.252 229.409 265.101C230.727 266.086 232.179 266.878 233.721 267.451C235.261 268.075 236.885 268.467 238.54 268.615C237.22 267.628 235.764 266.836 234.217 266.265ZM250.646 318.236C249.108 317.617 247.489 317.225 245.838 317.072C247.153 318.061 248.606 318.853 250.15 319.422C251.687 320.044 253.307 320.439 254.958 320.597C253.641 319.619 252.188 318.838 250.646 318.279V318.236ZM255.055 380.35C253.516 379.735 251.897 379.343 250.247 379.186C251.562 380.179 253.014 380.974 254.559 381.547C256.099 382.159 257.718 382.551 259.367 382.711C258.045 381.741 256.593 380.961 255.055 380.393V380.35ZM151.836 375.24C150.298 374.625 148.679 374.233 147.029 374.076C149.72 376.029 152.875 377.245 156.181 377.601C154.851 376.625 153.388 375.844 151.836 375.284V375.24ZM189.146 335.354C187.607 334.736 185.988 334.341 184.338 334.179C185.655 335.171 187.107 335.97 188.65 336.551C190.191 337.159 191.809 337.551 193.458 337.715C192.139 336.738 190.687 335.954 189.146 335.387V335.354ZM244.609 242.83C244.458 242.506 244.307 242.194 244.146 241.881C243.617 241.482 243.068 241.094 242.475 240.717C242.742 241.62 243.066 242.506 243.445 243.369C244.092 244.896 244.96 246.319 246.021 247.594C245.776 245.958 245.3 244.365 244.609 242.862V242.83ZM202.233 276.355C201.583 274.83 200.715 273.406 199.657 272.13C200.175 275.418 201.551 278.511 203.645 281.099C203.408 279.457 202.932 277.859 202.233 276.355ZM239.65 403.915C239 402.392 238.136 400.969 237.085 399.689C237.323 401.329 237.795 402.927 238.486 404.433C239.101 405.85 239.894 407.183 240.847 408.4H241.019C240.771 406.849 240.31 405.34 239.65 403.915ZM225.884 328.789C225.228 327.267 224.361 325.844 223.308 324.564C223.844 327.845 225.213 330.933 227.286 333.533C227.047 331.893 226.575 330.296 225.884 328.789ZM127.118 386.074C127.053 386.301 126.989 386.527 126.913 386.743C127.053 386.894 127.183 387.055 127.312 387.206C127.269 386.836 127.204 386.469 127.118 386.107V386.074ZM170.238 357.313C169.584 355.793 168.716 354.374 167.661 353.098C168.183 356.382 169.558 359.472 171.65 362.056C171.393 360.426 170.907 358.84 170.206 357.346L170.238 357.313ZM179.487 398.816C178.833 397.293 177.966 395.87 176.911 394.591C177.445 397.877 178.818 400.971 180.899 403.57C180.646 401.939 180.159 400.352 179.455 398.859L179.487 398.816ZM252.004 348.883C250.482 349.54 249.059 350.407 247.778 351.46C249.419 351.218 251.016 350.742 252.522 350.048C254.051 349.397 255.477 348.529 256.758 347.471C255.101 347.718 253.489 348.204 251.972 348.916L252.004 348.883ZM137.628 355.179L137.079 356.666C138.241 356.105 139.328 355.399 140.313 354.564C139.387 354.685 138.477 354.902 137.596 355.211L137.628 355.179ZM211.558 391.098C210.034 391.746 208.61 392.61 207.332 393.663C208.975 393.423 210.575 392.952 212.086 392.262C213.609 391.602 215.031 390.731 216.312 389.675C214.653 389.919 213.04 390.41 211.525 391.13L211.558 391.098ZM145.444 400.714L144.7 401.069L147.233 401.263C148.292 400.729 149.284 400.07 150.187 399.301C148.535 399.554 146.927 400.04 145.412 400.746L145.444 400.714ZM170.842 312.07C169.323 312.733 167.901 313.6 166.616 314.646C169.902 314.115 172.995 312.745 175.596 310.668C173.939 310.911 172.327 311.394 170.809 312.102L170.842 312.07ZM208.011 353.357C206.487 354.015 205.064 354.886 203.785 355.944C207.074 355.416 210.168 354.042 212.765 351.956C211.109 352.203 209.498 352.686 207.979 353.389L208.011 353.357ZM227.415 296.6C225.895 297.261 224.473 298.128 223.189 299.177C226.475 298.656 229.567 297.284 232.158 295.199C230.495 295.443 228.876 295.926 227.35 296.633L227.415 296.6Z" fill="white"/>
<path d="M239.974 269.748C231.608 268.508 223.114 251.627 221.648 240.113C221.55 239.316 234.584 214.446 236.621 209.261C237.041 208.183 266.104 230.131 266.104 230.131C266.104 230.131 258.558 239.747 255.033 248.834C254.785 249.589 248.059 270.933 239.974 269.748Z" fill="#D3766A"/>
<path d="M266.147 230.132C266.147 230.132 258.601 239.748 255.066 248.825C255.001 249.008 254.57 250.345 253.858 252.253C238.917 244.707 232.826 231.232 230.369 222.338C233.193 216.679 235.823 211.364 236.664 209.262C237.085 208.195 266.147 230.132 266.147 230.132Z" fill="#263238"/>
<path d="M243.337 168.87C234.831 178.712 226.326 214.211 231.188 225.12C238.249 240.923 257.06 250.421 272.281 240.32C287.082 230.521 297.345 184.059 291.232 173.408C282.242 157.713 255.885 154.339 243.337 168.87Z" fill="#D3766A"/>
<path d="M266.061 197.705C264.983 197.791 263.905 197.705 262.827 197.705C261.683 197.861 260.519 197.634 259.517 197.058C259.238 196.816 259.047 196.488 258.973 196.125C258.898 195.763 258.946 195.386 259.108 195.053C259.529 194.445 260.104 193.961 260.775 193.65C261.446 193.339 262.188 193.213 262.924 193.285C264.436 193.196 265.927 193.673 267.107 194.622C267.356 194.857 267.533 195.159 267.616 195.492C267.699 195.825 267.685 196.175 267.574 196.5C267.464 196.824 267.263 197.111 266.995 197.325C266.726 197.538 266.402 197.67 266.061 197.705Z" fill="#263238"/>
<path d="M265.113 202.911C265.113 202.814 264.897 202.987 264.875 203.095C264.477 205.52 263.603 208.237 261.264 208.603C261.189 208.603 261.167 208.733 261.264 208.743C263.991 208.894 265.113 205.283 265.113 202.911Z" fill="#263238"/>
<path d="M263.453 199.958C259.626 198.88 257.771 206.631 261.297 207.612C264.822 208.593 266.654 200.853 263.453 199.958Z" fill="#263238"/>
<path d="M279.019 205.899C279.019 205.813 279.18 206.06 279.159 206.158C278.512 208.529 278.167 211.364 280.14 212.626C280.204 212.626 280.14 212.787 280.086 212.755C277.531 211.806 278.027 208.055 279.019 205.899Z" fill="#263238"/>
<path d="M281.757 203.914C285.681 204.54 284.139 212.334 280.506 211.751C276.874 211.169 278.469 203.386 281.757 203.914Z" fill="#263238"/>
<path d="M285.734 200.077C284.744 199.617 283.779 199.102 282.845 198.536C281.75 198.131 280.82 197.372 280.204 196.38C280.069 196.033 280.053 195.651 280.159 195.294C280.264 194.937 280.485 194.625 280.786 194.407C282.112 193.545 283.643 193.944 285.001 194.612C286.386 195.243 287.489 196.364 288.095 197.76C288.223 198.088 288.251 198.446 288.177 198.791C288.103 199.135 287.93 199.45 287.678 199.696C287.427 199.943 287.109 200.111 286.764 200.178C286.418 200.246 286.06 200.211 285.734 200.077Z" fill="#263238"/>
<path d="M257.092 223.664C257.523 224.365 257.912 225.271 258.763 225.551C259.662 225.745 260.592 225.745 261.491 225.551C261.509 225.549 261.527 225.553 261.543 225.563C261.558 225.572 261.571 225.586 261.578 225.603C261.585 225.619 261.587 225.638 261.583 225.656C261.579 225.674 261.569 225.69 261.555 225.702C261.101 226.089 260.551 226.347 259.963 226.448C259.375 226.548 258.77 226.488 258.213 226.273C257.754 226.031 257.378 225.658 257.132 225.201C256.886 224.744 256.782 224.224 256.834 223.707C256.834 223.567 257.028 223.557 257.092 223.664Z" fill="#263238"/>
<path d="M261.318 217.099C261.703 218.191 262.308 219.192 263.096 220.039C263.884 220.887 264.839 221.563 265.899 222.026C266.821 222.442 267.798 222.725 268.799 222.866C268.987 222.909 269.178 222.93 269.371 222.931C269.554 222.943 269.737 222.943 269.92 222.931C270.054 222.939 270.186 222.902 270.295 222.826C270.405 222.749 270.486 222.638 270.524 222.511C270.529 222.424 270.529 222.338 270.524 222.252V222.036C271.009 220.204 271.505 217.358 271.505 217.358C272.098 217.854 275.16 220.225 275.343 219.244C276.777 211.159 278.361 202.169 278.081 193.814C278.081 193.754 278.057 193.697 278.015 193.654C277.972 193.612 277.915 193.588 277.855 193.588C277.794 193.588 277.737 193.612 277.694 193.654C277.652 193.697 277.628 193.754 277.628 193.814C275.946 201.533 275.634 209.499 274.06 217.282C273.006 216.416 271.833 215.705 270.578 215.169C270.298 215.169 269.726 220.689 269.435 221.487C269.438 221.515 269.438 221.544 269.435 221.573C266.201 221.228 264.132 219.729 261.62 216.937C261.458 216.754 261.221 216.873 261.318 217.099Z" fill="#263238"/>
<path d="M267.937 221.669C266.609 222.74 265.027 223.453 263.345 223.738C262.423 223.867 261.485 223.705 260.66 223.275C258.871 222.315 259.237 220.547 259.949 219.125C260.336 218.375 260.81 217.673 261.361 217.033C263.001 219.241 265.306 220.866 267.937 221.669Z" fill="#263238"/>
<path d="M263.345 223.739C262.423 223.867 261.485 223.705 260.66 223.275C258.871 222.316 259.237 220.548 259.949 219.125C261.954 219.826 263.646 221.712 263.345 223.739Z" fill="#FF97B8"/>
<path d="M294.488 187.227C279.396 193.544 264.131 176.07 264.131 176.07C262.402 178.722 259.862 180.744 256.89 181.836C253.918 182.928 250.673 183.03 247.638 182.128C247.638 182.128 240.394 203.979 234.486 202.664C225.507 200.745 229.096 169.634 233.16 164.222C237.224 158.811 245.202 158.832 245.202 158.832C245.202 158.832 246.722 154.294 253.168 151.2C260.283 147.772 280.118 158.52 280.118 158.52C281.919 155.938 284.3 153.815 287.071 152.321C287.74 151.945 288.478 151.709 289.241 151.627C290.004 151.545 290.776 151.618 291.51 151.843C292.244 152.068 292.924 152.439 293.51 152.934C294.096 153.43 294.575 154.039 294.919 154.725C293.447 156.142 292.315 157.874 291.61 159.792C289.184 166.131 294.542 167.241 295.738 161.28C296.258 159.067 295.967 156.742 294.919 154.725C298.369 151.383 302.95 151.017 305.138 153.647C309.159 158.466 307.046 181.988 294.488 187.227Z" fill="#263238"/>
<path d="M257.47 214.91C255.613 214.315 253.96 213.21 252.7 211.721C251.44 210.233 250.624 208.42 250.343 206.49C250.063 204.561 250.33 202.591 251.115 200.805C251.899 199.02 253.169 197.491 254.78 196.392C256.391 195.292 258.278 194.668 260.226 194.589C262.175 194.51 264.106 194.979 265.801 195.944C267.496 196.909 268.885 198.33 269.812 200.046C270.738 201.762 271.165 203.704 271.042 205.65C270.94 207.23 270.479 208.767 269.695 210.143C268.91 211.518 267.822 212.697 266.514 213.59C265.206 214.483 263.711 215.065 262.144 215.294C260.577 215.523 258.978 215.391 257.47 214.91ZM263.42 196.422C262.721 196.196 261.997 196.055 261.264 196.002C258.966 195.839 256.693 196.558 254.908 198.014C253.123 199.47 251.96 201.552 251.658 203.836C251.355 206.119 251.935 208.432 253.28 210.302C254.624 212.173 256.632 213.46 258.893 213.901C261.154 214.342 263.498 213.903 265.446 212.675C267.395 211.447 268.802 209.521 269.379 207.291C269.957 205.061 269.662 202.695 268.555 200.675C267.447 198.656 265.611 197.134 263.42 196.422Z" fill="#FFBABA"/>
<path d="M280.441 219.265C276.712 217.864 274.771 212.797 276.129 207.504C276.708 204.972 278.07 202.686 280.021 200.971C280.809 200.177 281.79 199.6 282.868 199.298C283.946 198.996 285.083 198.979 286.17 199.249C287.256 199.518 288.254 200.065 289.066 200.835C289.877 201.606 290.475 202.574 290.801 203.645C291.715 206.077 291.847 208.734 291.178 211.245C289.798 216.807 285.303 220.505 281.153 219.47C280.91 219.423 280.672 219.354 280.441 219.265ZM286.273 200.777L285.767 200.626C284.896 200.45 283.995 200.487 283.142 200.733C282.288 200.979 281.506 201.426 280.862 202.039C279.14 203.567 277.938 205.594 277.423 207.838C276.227 212.668 278.005 217.281 281.422 218.122C284.84 218.963 288.57 215.729 289.766 210.91C290.366 208.686 290.253 206.33 289.443 204.173C289.182 203.416 288.766 202.723 288.22 202.138C287.673 201.553 287.01 201.089 286.273 200.777Z" fill="#FFBABA"/>
<path d="M270.47 206.772L269.802 205.554C271.602 204.552 275.526 203.517 277.499 206.632L276.313 207.365C274.556 204.573 270.632 206.675 270.47 206.772Z" fill="#FFBABA"/>
<path d="M224.461 200.411L223.383 199.548C223.793 199.042 227.426 194.589 230.563 194.697C233.506 194.805 251.465 200.087 252.231 200.357L251.832 201.693C246.679 200.163 232.794 196.163 230.52 196.088C228.428 196.012 225.442 199.182 224.461 200.411Z" fill="#FFBABA"/>
<path d="M238.335 200.638C238.335 200.638 235.435 186.754 229.442 187.347C223.448 187.939 222.435 205.802 227.232 210.362C227.805 210.989 228.498 211.493 229.271 211.845C230.044 212.197 230.88 212.388 231.729 212.409C232.578 212.429 233.423 212.277 234.212 211.962C235 211.647 235.717 211.176 236.319 210.577L238.335 200.638Z" fill="#D3766A"/>
<path d="M229.28 192.476C229.194 192.423 229.118 192.541 229.183 192.617C232.492 195.937 232.999 200.54 232.837 205.003C232.277 203.019 231.005 201.51 228.417 202.081C228.288 202.081 228.32 202.308 228.417 202.34C229.216 202.414 229.971 202.735 230.578 203.259C231.184 203.783 231.613 204.483 231.802 205.262C232.118 206.561 232.295 207.891 232.33 209.229C232.33 209.671 233.085 209.757 233.128 209.229C233.123 209.193 233.123 209.157 233.128 209.121C235.435 204.14 234.53 195.322 229.28 192.476Z" fill="#263238"/>
<path d="M312.243 298.089C314.97 290.909 378.205 303.91 375.683 314.916C366.423 355.234 340.616 391.26 334.094 399.496C325.534 410.276 308.502 407.883 302.293 401.35C293.291 391.875 309.548 305.204 312.243 298.089Z" fill="#D3766A"/>
<path d="M307.791 317.88C306.385 321.744 305.272 325.708 304.46 329.738C303.543 333.727 302.746 337.737 302.099 341.769C300.82 349.924 300.1 358.158 299.943 366.412C299.824 371.025 299.943 375.629 299.943 380.242C299.943 380.35 300.115 380.339 300.115 380.242C300.115 376.157 300.363 372.039 300.697 367.964C301.032 363.889 301.441 359.739 301.969 355.653C302.994 347.622 304.125 339.602 305.581 331.635C305.983 329.4 306.404 327.172 306.842 324.952C307.306 322.645 307.834 320.349 308.136 318.009C308.136 317.837 307.866 317.686 307.791 317.88Z" fill="#263238"/>
<path d="M296.989 184.457C296.573 189.947 295.751 195.399 294.531 200.767C294.326 201.684 294.1 202.622 293.874 203.549C292.968 207.235 291.89 210.944 290.64 214.512C290.352 215.374 290.05 216.226 289.734 217.067C285.907 227.405 280.851 236.298 275.159 240.071C273.714 241.041 272.18 241.871 270.578 242.551C262.419 237.792 255.604 231.035 250.776 222.917C245.949 214.798 243.266 205.584 242.981 196.143L241.256 195.669C241.526 195.248 241.806 194.817 242.076 194.364C242.345 193.911 242.679 193.34 242.97 192.801C243.402 178.922 249.008 165.706 258.688 155.75C272.238 152.107 288.462 157.313 295.286 169.204C296.946 172.147 297.452 177.687 296.989 184.457Z" fill="#D3766A"/>
<path d="M268.584 194.934C267.438 194.993 266.291 194.993 265.145 194.934C263.819 194.934 262.763 195.031 261.631 194.244C261.326 193.986 261.118 193.633 261.039 193.241C260.961 192.85 261.017 192.443 261.2 192.088C262.03 190.622 263.647 190.245 265.242 190.212C266.843 190.118 268.422 190.621 269.673 191.625C269.95 191.87 270.149 192.192 270.246 192.55C270.342 192.907 270.332 193.285 270.216 193.637C270.101 193.989 269.884 194.3 269.594 194.53C269.304 194.761 268.953 194.901 268.584 194.934Z" fill="#263238"/>
<path d="M267.581 200.508C267.581 200.411 267.355 200.594 267.333 200.691C266.913 203.268 265.986 206.146 263.506 206.534C263.431 206.534 263.409 206.674 263.506 206.685C266.395 206.793 267.581 202.966 267.581 200.508Z" fill="#263238"/>
<path d="M265.824 197.328C261.771 196.196 259.809 204.389 263.56 205.434C267.312 206.48 269.22 198.276 265.824 197.328Z" fill="#263238"/>
<path d="M282.317 203.613C282.317 203.527 282.49 203.785 282.457 203.893C281.767 206.405 281.379 209.402 283.535 210.792C283.6 210.792 283.535 210.965 283.481 210.933C280.743 209.865 281.261 205.898 282.317 203.613Z" fill="#263238"/>
<path d="M285.217 201.512C289.367 202.18 287.729 210.438 283.88 209.823C280.032 209.209 281.735 200.951 285.217 201.512Z" fill="#263238"/>
<path d="M289.421 197.447C288.343 196.984 287.405 196.369 286.371 195.82C285.215 195.395 284.23 194.604 283.568 193.566C283.426 193.2 283.41 192.798 283.521 192.422C283.632 192.045 283.865 191.716 284.182 191.486C285.594 190.57 287.211 190.99 288.645 191.702C290.098 192.373 291.251 193.56 291.879 195.033C292.001 195.374 292.024 195.743 291.943 196.096C291.862 196.45 291.681 196.772 291.423 197.026C291.164 197.28 290.838 197.455 290.484 197.53C290.129 197.604 289.76 197.576 289.421 197.447Z" fill="#263238"/>
<path d="M259.087 222.436C259.55 223.169 259.96 224.128 260.865 224.43C261.813 224.64 262.796 224.64 263.743 224.43C263.762 224.429 263.781 224.434 263.797 224.444C263.814 224.454 263.827 224.469 263.835 224.486C263.843 224.503 263.845 224.522 263.843 224.541C263.84 224.56 263.832 224.577 263.819 224.592C263.338 225.003 262.754 225.277 262.129 225.383C261.504 225.49 260.863 225.425 260.272 225.195C259.788 224.937 259.391 224.542 259.132 224.058C258.873 223.574 258.763 223.025 258.817 222.479C258.806 222.328 259.011 222.328 259.087 222.436Z" fill="#263238"/>
<path d="M263.571 215.47C263.973 216.628 264.611 217.691 265.444 218.591C266.277 219.491 267.287 220.208 268.411 220.698C269.388 221.139 270.422 221.437 271.483 221.582C271.685 221.628 271.891 221.653 272.098 221.658C272.288 221.67 272.479 221.67 272.669 221.658C272.811 221.667 272.952 221.628 273.069 221.548C273.186 221.468 273.273 221.351 273.316 221.216C273.327 221.13 273.327 221.043 273.316 220.957V220.731C273.833 218.79 274.394 215.772 274.394 215.772C275.019 216.3 278.264 218.812 278.447 217.777C279.967 209.153 281.681 199.677 281.358 190.827C281.358 190.764 281.333 190.704 281.288 190.659C281.244 190.615 281.184 190.59 281.121 190.59C281.058 190.59 280.998 190.615 280.953 190.659C280.909 190.704 280.884 190.764 280.884 190.827C279.094 198.998 278.728 207.439 277.1 215.621C275.946 214.729 274.672 214.003 273.316 213.465C273.025 213.465 272.41 219.308 272.109 220.159C272.113 220.188 272.113 220.217 272.109 220.246C268.735 219.879 266.492 218.305 263.84 215.33C263.711 215.114 263.463 215.233 263.571 215.47Z" fill="#263238"/>
<path d="M270.578 220.321C269.17 221.446 267.495 222.189 265.716 222.477C264.742 222.617 263.749 222.443 262.881 221.981C260.973 220.968 261.372 219.092 262.126 217.594C262.533 216.798 263.032 216.052 263.614 215.373C265.347 217.724 267.787 219.458 270.578 220.321Z" fill="#263238"/>
<path d="M265.705 222.51C264.731 222.65 263.739 222.476 262.87 222.014C260.962 221.001 261.361 219.125 262.115 217.627C264.228 218.371 266.029 220.354 265.705 222.51Z" fill="#FF97B8"/>
<path d="M298.692 183.842C298.121 184.079 297.549 184.284 296.989 184.456C281.552 189.243 266.535 172.016 266.535 172.016C264.712 174.834 262.026 176.987 258.878 178.152C255.731 179.318 252.291 179.435 249.072 178.484C247.398 183.417 245.347 188.214 242.938 192.832C243.228 183.666 245.777 174.713 250.358 166.767C254.939 158.822 261.41 152.131 269.198 147.287C274.115 149.012 278.9 151.095 283.514 153.518C285.425 150.783 287.95 148.535 290.887 146.953C291.595 146.554 292.376 146.303 293.184 146.215C293.991 146.127 294.808 146.204 295.585 146.441C296.362 146.677 297.083 147.069 297.704 147.593C298.325 148.116 298.834 148.76 299.199 149.486C297.643 150.998 296.446 152.84 295.695 154.876C293.13 161.581 298.8 162.756 300.061 156.45C300.618 154.104 300.312 151.636 299.199 149.497C302.853 145.972 307.704 145.584 309.979 148.419C314.226 153.399 312.005 178.29 298.692 183.842Z" fill="#263238"/>
<path d="M269.899 194.191C268.104 192.696 265.88 191.812 263.549 191.668C262.848 191.623 262.143 191.648 261.447 191.744C259.7 191.97 258.032 192.611 256.584 193.615C255.136 194.618 253.95 195.955 253.125 197.511C252.887 197.947 252.685 198.401 252.521 198.869C252.147 199.865 251.925 200.912 251.864 201.974C251.713 204.42 252.38 206.847 253.76 208.873C255.14 210.899 257.154 212.408 259.485 213.164C260.36 213.439 261.265 213.609 262.18 213.67H262.87C265.513 213.675 268.07 212.733 270.077 211.014C272.085 209.296 273.41 206.914 273.812 204.303C273.812 203.99 273.887 203.677 273.909 203.354C273.93 203.031 273.909 202.88 273.909 202.653C273.905 201.034 273.544 199.436 272.851 197.973C272.157 196.51 271.149 195.219 269.899 194.191ZM262.266 212.194C259.949 212.045 257.764 211.057 256.122 209.415C254.48 207.773 253.493 205.588 253.345 203.271C253.197 200.953 253.898 198.661 255.318 196.823C256.738 194.985 258.779 193.727 261.059 193.285C261.85 193.132 262.658 193.081 263.463 193.135C264.254 193.186 265.036 193.335 265.791 193.576C266.754 193.886 267.66 194.348 268.476 194.946C270.151 196.159 271.387 197.884 271.997 199.86C272.607 201.837 272.558 203.958 271.857 205.905C271.156 207.851 269.842 209.517 268.112 210.651C266.382 211.785 264.331 212.327 262.266 212.194Z" fill="#FFBABA"/>
<path d="M294.725 201.231L294.531 200.768C293.871 199.252 292.736 197.992 291.297 197.178C290.833 196.92 290.336 196.724 289.82 196.596C289.069 196.413 288.291 196.369 287.524 196.466C285.961 196.685 284.496 197.356 283.309 198.396C282.418 199.155 281.647 200.046 281.024 201.037C280.549 201.772 280.148 202.552 279.827 203.366C279.607 203.89 279.427 204.431 279.288 204.983C279.25 205.092 279.217 205.204 279.191 205.317C278.552 207.761 278.619 210.337 279.385 212.744C279.705 213.859 280.268 214.889 281.034 215.76C281.8 216.631 282.75 217.32 283.816 217.778C284.042 217.865 284.269 217.929 284.506 217.994C285.399 218.197 286.323 218.219 287.224 218.06C288.126 217.901 288.986 217.563 289.756 217.067C292.501 215.273 294.436 212.475 295.146 209.273C295.849 206.614 295.702 203.802 294.725 201.231ZM293.647 208.917C293.157 211.02 292.111 212.952 290.618 214.512C289.915 215.331 289.01 215.952 287.992 216.311C286.974 216.67 285.88 216.756 284.818 216.56C281.196 215.666 279.31 210.782 280.582 205.672C281.126 203.297 282.395 201.149 284.215 199.528C284.9 198.88 285.73 198.406 286.636 198.145C287.542 197.885 288.497 197.845 289.421 198.029C289.601 198.072 289.777 198.126 289.95 198.191C290.73 198.524 291.432 199.016 292.012 199.636C292.591 200.256 293.034 200.99 293.313 201.792C293.543 202.359 293.717 202.947 293.83 203.549C294.175 205.327 294.127 207.159 293.69 208.917H293.647Z" fill="#FFBABA"/>
<path d="M273.251 204.54L272.551 203.246C274.459 202.168 278.62 201.09 280.7 204.432L279.45 205.208C277.585 202.212 273.435 204.443 273.251 204.54Z" fill="#FFBABA"/>
<path d="M253.923 197.749L253.503 199.161L252.522 198.87C250.096 198.159 246.517 197.124 242.949 196.132L241.224 195.658C241.494 195.237 241.774 194.806 242.043 194.354L242.917 194.601C247.229 195.787 251.4 197.005 253.125 197.512L253.923 197.749Z" fill="#FFBABA"/>
<g opacity="0.3">
<path d="M310.464 248.792C299.724 251.157 288.523 250.285 278.279 246.284C268.035 242.284 259.207 235.336 252.911 226.318C246.616 217.3 243.137 206.618 242.912 195.623C242.688 184.628 245.73 173.813 251.652 164.546C257.575 155.28 266.112 147.977 276.185 143.563C286.258 139.148 297.413 137.82 308.241 139.746C319.069 141.672 329.082 146.765 337.015 154.382C344.948 161.999 350.444 171.797 352.808 182.538C354.378 189.669 354.529 197.039 353.251 204.228C351.973 211.417 349.292 218.284 345.36 224.436C341.428 230.589 336.322 235.906 330.334 240.085C324.347 244.264 317.595 247.223 310.464 248.792Z" fill="white"/>
<path d="M249.74 221.184C256.784 234.041 268.617 243.598 282.669 247.779C296.72 251.959 311.854 250.425 324.78 243.509L249.74 221.184Z" fill="#EBEBEB"/>
<path d="M251.335 165.096L354.112 195.679C354.201 191.263 353.767 186.852 352.818 182.538C351.744 177.589 349.984 172.814 347.59 168.352L271.72 145.768C263.384 150.361 256.366 157.016 251.335 165.096Z" fill="#EBEBEB"/>
<path d="M243.315 200.983L341.209 230.089C343.541 227.287 345.596 224.266 347.342 221.066L243.1 190.041C242.799 193.686 242.871 197.352 243.315 200.983Z" fill="#EBEBEB"/>
<path d="M247.778 171.822L353.422 203.267C353.53 202.599 353.627 201.93 353.702 201.262L248.619 170C248.328 170.593 248.037 171.197 247.778 171.822Z" fill="#EBEBEB"/>
<path d="M289.313 139.666L336.206 153.616C334.988 152.484 333.705 151.46 332.38 150.382L294.294 139.062C292.624 139.178 290.962 139.38 289.313 139.666Z" fill="#EBEBEB"/>
</g>
<path d="M318.117 317.527L332.393 314.383L318.568 251.606L304.292 254.75L318.117 317.527Z" fill="#EBEBEB"/>
<path d="M358.888 181.201C356.259 169.262 350.148 158.371 341.329 149.904C332.51 141.438 321.379 135.776 309.342 133.636C297.306 131.496 284.905 132.973 273.708 137.881C262.511 142.788 253.021 150.906 246.437 161.207C239.854 171.508 236.473 183.53 236.722 195.753C236.971 207.976 240.839 219.85 247.836 229.875C254.834 239.899 264.646 247.624 276.034 252.071C287.422 256.519 299.872 257.49 311.812 254.861C327.819 251.331 341.77 241.589 350.598 227.777C359.426 213.964 362.407 197.211 358.888 181.201ZM310.464 248.792C299.724 251.16 288.523 250.289 278.278 246.29C268.032 242.292 259.203 235.344 252.906 226.327C246.61 217.31 243.128 206.629 242.903 195.633C242.677 184.637 245.717 173.822 251.639 164.554C257.56 155.286 266.097 147.983 276.17 143.567C286.243 139.152 297.398 137.823 308.227 139.748C319.055 141.673 329.069 146.766 337.002 154.382C344.936 161.999 350.433 171.797 352.797 182.538C354.368 189.668 354.519 197.038 353.242 204.226C351.965 211.414 349.284 218.281 345.353 224.433C341.422 230.585 336.318 235.903 330.331 240.083C324.345 244.262 317.594 247.222 310.464 248.792Z" fill="#455A64"/>
<path d="M324.015 361.702L345.607 356.948L333.361 301.291L311.758 306.045L324.015 361.702Z" fill="#263238"/>
<path d="M333.436 187.206C333.413 187.143 333.395 187.078 333.382 187.012C333.124 186.085 333.663 187.907 333.469 187.303C333.275 186.7 332.994 185.848 332.725 185.147C331.781 182.647 330.627 180.23 329.275 177.925C329.092 177.601 328.887 177.278 328.704 176.955C328.639 176.847 329.178 177.709 328.704 177.03L328.327 176.448C327.831 175.704 327.324 174.971 326.796 174.292C325.628 172.714 324.357 171.216 322.99 169.807L321.999 168.816C321.546 168.374 322.527 169.301 321.902 168.729L321.276 168.158C320.468 167.457 319.638 166.778 318.775 166.131C317.913 165.485 316.889 164.773 315.908 164.159C315.455 163.878 315.002 163.609 314.539 163.35C313.741 162.887 314.884 163.512 314.291 163.21L313.439 162.779C310.864 161.512 308.17 160.501 305.397 159.76H305.257L304.955 159.696L303.716 159.426C302.907 159.265 302.11 159.124 301.29 159.006C299.578 158.761 297.855 158.603 296.127 158.532C295.647 158.477 295.182 158.329 294.76 158.095C294.337 157.861 293.965 157.546 293.664 157.168C293.057 156.405 292.777 155.431 292.887 154.462C292.997 153.493 293.488 152.607 294.251 152C295.014 151.392 295.988 151.113 296.957 151.223C307.971 151.563 318.504 155.817 326.666 163.221C332.089 168.299 336.329 174.508 339.085 181.407C339.716 182.947 340.242 184.528 340.659 186.139C340.808 187.102 340.569 188.085 339.996 188.873C339.422 189.661 338.56 190.19 337.597 190.343C336.637 190.473 335.664 190.226 334.881 189.656C334.098 189.086 333.565 188.235 333.393 187.282L333.436 187.206Z" fill="white"/>
<path d="M334.945 198.039C335.055 198.748 335.372 199.409 335.857 199.937C336.342 200.465 336.973 200.838 337.67 201.007C338.367 201.176 339.099 201.135 339.772 200.888C340.445 200.641 341.03 200.2 341.453 199.62C341.875 199.04 342.116 198.348 342.144 197.632C342.173 196.915 341.988 196.206 341.613 195.594C341.238 194.983 340.69 194.496 340.039 194.197C339.387 193.897 338.661 193.797 337.953 193.911C337.008 194.062 336.161 194.581 335.597 195.355C335.034 196.128 334.799 197.094 334.945 198.039Z" fill="white"/>
<path d="M371.436 327.518C371.436 327.518 386.873 302.142 367.652 277.93C359.739 267.969 341.068 250.107 303.187 252.597C294.197 253.19 281.811 260.401 296.838 264.767C307.51 267.872 315.218 266.611 321.104 269.543C321.104 269.543 306.432 280.592 307.381 289.572C307.801 293.582 308.114 302.346 310.432 310.69C310.432 310.69 313.472 312.846 315.94 312.48C315.94 312.48 322.591 331.668 346.512 337.565L371.436 327.518Z" fill="#D3766A"/>
<path d="M359.534 274.675C353.347 272.207 340.13 267.205 327.895 266.86C314.302 266.482 288.009 269.425 287.847 279.461C287.718 286.824 297.851 286.576 297.851 286.576C297.851 286.576 287.244 290.08 288.591 296.753C289.809 302.832 297.636 302.143 297.636 302.143C297.636 302.143 291.567 305.377 293.873 311.004C296.644 317.774 308.901 309.926 317.589 314.324C319.595 315.359 359.534 274.675 359.534 274.675Z" fill="#D3766A"/>
<path d="M329.868 281.283C323.669 279.925 308.782 280.442 297.98 286.339C297.733 286.469 297.7 286.727 297.98 286.652C308.359 283.625 319.066 281.866 329.868 281.413C329.965 281.413 329.965 281.359 329.868 281.283Z" fill="#263238"/>
<path d="M329.113 294.995C323.637 294.37 308.319 295.588 297.582 301.938C297.334 302.078 297.323 302.337 297.582 302.25C307.796 298.69 318.382 296.3 329.135 295.125C329.152 295.122 329.167 295.112 329.177 295.098C329.187 295.084 329.191 295.067 329.189 295.049C329.186 295.032 329.176 295.017 329.162 295.007C329.148 294.997 329.13 294.993 329.113 294.995Z" fill="#263238"/>
<path d="M351.18 339.215C345.692 337.913 340.395 335.909 335.42 333.254C330.409 330.543 325.975 326.881 322.365 322.474C321.287 321.126 320.209 319.725 319.271 318.291C318.333 316.857 317.298 315.23 316.188 313.807C316.102 313.699 315.897 313.807 315.962 313.904C317.211 316.896 318.749 319.759 320.554 322.452C322.172 324.971 324.107 327.271 326.31 329.298C330.66 333.168 335.815 336.025 341.402 337.663C344.575 338.546 347.823 339.135 351.104 339.42C351.266 339.463 351.331 339.247 351.18 339.215Z" fill="#263238"/>
<path d="M193.825 258.008C166.055 295.296 119.712 392.478 112.899 406.772C108.274 416.474 158.973 442.023 161.118 434.973C163.878 425.939 209.208 306.691 215.557 263.215C219.028 239.38 203.43 245.104 193.825 258.008Z" fill="#D3766A"/>
<path d="M162.487 430.122C161.312 438.907 155.34 456.608 150.898 459.314C146.457 462.02 123.118 461.47 111.357 461.47C99.5964 461.47 97.3433 458.182 97.4835 454.139C97.6236 450.097 122.353 449.321 122.353 449.321C122.353 449.321 89.3877 458.721 81.0979 460.306C72.8081 461.89 53.7167 466.666 50.9139 459.799C49.6742 456.694 54.9025 453.557 54.9025 453.557C54.9025 453.557 46.8929 455.897 45.6101 451.919C44.1656 447.38 50.5366 444.89 50.5366 444.89C50.5366 444.89 45.5239 445.893 45.4053 442.195C45.1897 433.895 76.5379 429.841 76.5379 429.841C76.5379 429.841 52.5417 441.527 51.7439 434.779C50.6659 425.454 99.8659 415.224 104.986 411.16C108.712 408.054 112.197 404.67 115.411 401.037L162.487 430.122Z" fill="#D3766A"/>
<path d="M97.6558 456.145C97.5726 455.572 97.627 454.988 97.8145 454.44C98.002 453.893 98.3171 453.398 98.7338 452.997C99.5791 452.223 100.548 451.596 101.601 451.143C103.776 450.218 106.031 449.497 108.339 448.987C112.974 447.812 117.728 446.982 122.461 445.753C117.582 445.679 112.714 446.223 107.972 447.37C105.549 447.925 103.216 448.818 101.041 450.021C99.9144 450.641 98.9274 451.484 98.1409 452.501C97.7542 453.016 97.5064 453.621 97.4215 454.259C97.3365 454.897 97.4172 455.547 97.6558 456.145Z" fill="#263238"/>
<path d="M54.978 453.515C58.3737 452.685 61.7155 451.737 65.0465 450.767C68.3776 449.796 71.6978 448.783 75.018 447.78L84.9464 444.676C88.2559 443.598 91.5653 442.606 94.9072 441.604C91.4379 441.985 87.9984 442.601 84.6122 443.447C81.2058 444.223 77.864 445.193 74.5329 446.207C71.2019 447.22 67.9032 448.363 64.6477 449.57C61.3921 450.777 58.1042 452.049 54.978 453.515Z" fill="#263238"/>
<path d="M86.9082 433.355C83.7105 433.556 80.5324 433.996 77.4003 434.671C74.2573 435.296 71.1515 436.095 68.0971 437.064C65.0353 438.013 62.03 439.136 59.0958 440.427C56.1511 441.686 53.3013 443.156 50.5688 444.825C53.598 443.747 56.5517 442.616 59.5594 441.591C62.567 440.567 65.5638 439.554 68.593 438.627C71.6222 437.7 74.6514 436.784 77.7021 435.889C80.7528 434.994 83.8144 434.218 86.9082 433.355Z" fill="#263238"/>
<path d="M82.0573 425.508C76.9071 425.923 71.8333 427.01 66.9653 428.742C62.0499 430.37 57.3706 432.639 53.0483 435.49C57.9209 433.755 62.6641 431.922 67.5043 430.305C72.3445 428.688 77.1416 427.092 82.0573 425.508Z" fill="#263238"/>
<path d="M205.629 321.923L149.357 320.371C149.357 320.371 180.026 271.559 196.455 253.653C213.606 235.004 222.941 236.61 217.088 269.651C211.191 302.918 205.629 321.923 205.629 321.923Z" fill="#FFBABA"/>
<path d="M170.809 312.104C169.291 312.768 167.869 313.634 166.583 314.68C169.869 314.15 172.962 312.779 175.563 310.702C173.919 310.938 172.318 311.41 170.809 312.104ZM202.233 276.357C201.583 274.832 200.715 273.408 199.657 272.132C200.175 275.42 201.551 278.513 203.645 281.101C203.408 279.459 202.932 277.861 202.233 276.357ZM176.285 286.965C175.671 288.504 175.279 290.123 175.121 291.773C177.075 289.079 178.287 285.919 178.636 282.61C177.643 283.938 176.851 285.406 176.285 286.965ZM201.079 308.999C200.46 310.54 200.071 312.164 199.926 313.818C201.868 311.118 203.079 307.961 203.44 304.655C202.443 305.982 201.641 307.445 201.058 308.999H201.079ZM217.573 244.912C217.303 245.473 217.055 246.044 216.818 246.626C216.21 248.167 215.818 249.785 215.654 251.434C216.647 250.117 217.445 248.665 218.026 247.122C218.08 246.982 218.123 246.853 218.166 246.712C218.012 246.096 217.806 245.494 217.551 244.912H217.573Z" fill="white"/>
<path d="M202.103 312.134C200.767 311.94 199.398 311.94 198.061 311.876L193.911 311.649C191.122 311.513 188.323 311.401 185.513 311.315C179.907 311.143 174.313 310.949 168.718 310.873C167.176 310.873 165.635 310.873 164.093 310.873C162.552 310.873 160.859 311.035 159.242 311.046C159.145 311.046 159.156 311.196 159.242 311.196C160.622 311.283 162.002 311.488 163.392 311.574C164.783 311.66 166.228 311.746 167.651 311.8C170.453 311.908 173.256 312.005 176.059 312.07C181.568 312.199 187.087 312.35 192.595 312.361H197.274C198.88 312.361 200.508 312.447 202.125 312.307C202.168 312.274 202.19 312.145 202.103 312.134Z" fill="#263238"/>
<path d="M216.538 285.325C216.538 285.218 216.408 285.153 216.354 285.261C215.311 287.183 214.417 289.184 213.681 291.244C213.875 290.263 214.101 289.282 214.285 288.29C214.899 285.121 215.46 281.93 216.085 278.76C216.078 278.741 216.066 278.725 216.049 278.713C216.033 278.702 216.013 278.695 215.993 278.695C215.973 278.695 215.953 278.702 215.937 278.713C215.921 278.725 215.908 278.741 215.902 278.76C214.446 284.215 212.754 289.616 211.46 295.114C210.167 300.612 208.862 306.109 207.655 311.629C206.997 314.679 206.404 318.485 205.736 321.525C204.108 321.719 202.017 321.525 200.26 321.751C200.109 321.751 200.152 322.021 200.26 322.021C202.114 322.074 204.324 322.495 206.275 322.376C206.523 322.376 211.245 302.768 213.207 293.378C214.414 290.705 215.535 288.031 216.538 285.325Z" fill="#263238"/>
<path d="M256.564 254.84C255.777 257.416 254.882 259.96 253.858 262.45C253.003 264.694 251.953 266.858 250.721 268.918C248.392 272.594 244.813 275.634 240.275 275.623C235.963 275.623 232.018 273.123 229.258 269.932C226.24 266.45 224.234 262.084 222.434 257.88C221.356 255.282 220.278 252.63 219.416 249.946C218.974 248.587 218.51 247.229 218.122 245.849C217.734 244.469 217.4 243.079 216.926 241.731C216.926 241.623 216.688 241.634 216.721 241.731C217.519 244.836 219.836 254.667 220.763 257.168C222.467 261.75 224.385 266.482 227.458 270.341C230.368 273.985 234.325 276.745 239.057 277.197C243.789 277.65 247.843 275.16 250.451 271.408C251.985 269.045 253.183 266.48 254.009 263.787C255.011 260.833 255.852 257.804 256.618 254.775C256.661 254.818 256.564 254.807 256.564 254.84Z" fill="#263238"/>
<path d="M433.205 464.078H355.902L352.452 396.121H433.205V464.078Z" fill="#DBDBDB"/>
<path d="M433.205 396.121L460.974 361.355L483.073 396.121L479.624 464.078H433.205V396.121Z" fill="#C7C7C7"/>
<path d="M379.434 350.316H461.955L491.719 398.87H482.136L461.955 365.257L438.681 402.88H345.639L379.434 350.316Z" fill="#A6A6A6"/>
<path d="M388.996 365.68H371.252L361.788 377.02H382.27L388.996 365.68Z" fill="#C7C7C7"/>
<path d="M375.554 375.079V388.888H365.679V375.079L370.616 368.902L375.554 375.079Z" fill="#DBDBDB"/>
<path d="M375.554 375.068H383.315L375.554 388.888V375.068Z" fill="#C7C7C7"/>
<path d="M373.172 375.295H367.555V384.771H373.172V375.295Z" fill="#FBFAFF"/>
<path d="M370.056 375.953H368.245V379.004H370.056V375.953Z" fill="#EBEBEB"/>
<path d="M372.471 375.953H370.66V379.004H372.471V375.953Z" fill="#EBEBEB"/>
<path d="M370.056 379.553H368.245V384.07H370.056V379.553Z" fill="#EBEBEB"/>
<path d="M372.471 379.553H370.66V384.07H372.471V379.553Z" fill="#EBEBEB"/>
<path d="M432.44 365.68H414.696L405.813 377.02H425.67L432.44 365.68Z" fill="#C7C7C7"/>
<path d="M418.997 375.079V388.888H409.123V375.079L414.06 368.902L418.997 375.079Z" fill="#DBDBDB"/>
<path d="M418.997 375.068H426.769L418.997 388.888V375.068Z" fill="#C7C7C7"/>
<path d="M416.615 375.295H410.999V384.771H416.615V375.295Z" fill="#FBFAFF"/>
<path d="M413.5 375.953H411.688V379.004H413.5V375.953Z" fill="#EBEBEB"/>
<path d="M415.925 375.953H414.114V379.004H415.925V375.953Z" fill="#EBEBEB"/>
<path d="M413.5 379.553H411.688V384.07H413.5V379.553Z" fill="#EBEBEB"/>
<path d="M415.925 379.553H414.114V384.07H415.925V379.553Z" fill="#EBEBEB"/>
<path d="M447.155 348.355H437.28V361.356H447.155V348.355Z" fill="#DBDBDB"/>
<path d="M447.154 348.355H454.916V350.447L447.154 361.356V348.355Z" fill="#C7C7C7"/>
<path d="M447.155 343.936H436.17V348.355H447.155V343.936Z" fill="#C7C7C7"/>
<path d="M455.768 343.936H447.154V348.355H455.768V343.936Z" fill="#A6A6A6"/>
<path d="M376.298 408.443H364.073V429.087H376.298V408.443Z" fill="#FBFAFF"/>
<path d="M369.517 409.877H365.582V416.528H369.517V409.877Z" fill="#EBEBEB"/>
<path d="M374.788 409.877H370.854V416.528H374.788V409.877Z" fill="#EBEBEB"/>
<path d="M369.517 417.725H365.582V427.578H369.517V417.725Z" fill="#EBEBEB"/>
<path d="M374.788 417.725H370.854V427.578H374.788V417.725Z" fill="#EBEBEB"/>
<path d="M421.703 408.443H409.479V429.087H421.703V408.443Z" fill="#FBFAFF"/>
<path d="M414.922 409.877H410.988V416.528H414.922V409.877Z" fill="#EBEBEB"/>
<path d="M420.193 409.877H416.259V416.528H420.193V409.877Z" fill="#EBEBEB"/>
<path d="M414.922 417.725H410.988V427.578H414.922V417.725Z" fill="#EBEBEB"/>
<path d="M420.193 417.725H416.259V427.578H420.193V417.725Z" fill="#EBEBEB"/>
<path d="M376.298 437.129H364.073V457.773H376.298V437.129Z" fill="#FBFAFF"/>
<path d="M369.517 438.562H365.582V445.214H369.517V438.562Z" fill="#EBEBEB"/>
<path d="M374.788 438.562H370.854V445.214H374.788V438.562Z" fill="#EBEBEB"/>
<path d="M369.517 446.41H365.582V456.263H369.517V446.41Z" fill="#EBEBEB"/>
<path d="M374.788 446.41H370.854V456.263H374.788V446.41Z" fill="#EBEBEB"/>
<path d="M421.703 437.129H409.479V457.773H421.703V437.129Z" fill="#FBFAFF"/>
<path d="M414.922 438.562H410.988V445.214H414.922V438.562Z" fill="#EBEBEB"/>
<path d="M420.193 438.562H416.259V445.214H420.193V438.562Z" fill="#EBEBEB"/>
<path d="M414.922 446.41H410.988V456.263H414.922V446.41Z" fill="#EBEBEB"/>
<path d="M420.193 446.41H416.259V456.263H420.193V446.41Z" fill="#EBEBEB"/>
<path d="M398.935 408.443H386.711V429.087H398.935V408.443Z" fill="#FBFAFF"/>
<path d="M392.155 409.877H388.22V416.528H392.155V409.877Z" fill="#EBEBEB"/>
<path d="M397.437 409.877H393.502V416.528H397.437V409.877Z" fill="#EBEBEB"/>
<path d="M392.155 417.725H388.22V427.578H392.155V417.725Z" fill="#EBEBEB"/>
<path d="M397.437 417.725H393.502V427.578H397.437V417.725Z" fill="#EBEBEB"/>
<path d="M398.935 437.27H386.711V457.913H398.935V437.27Z" fill="#FBFAFF"/>
<path d="M392.155 438.691H388.22V445.343H392.155V438.691Z" fill="#EBEBEB"/>
<path d="M397.437 438.691H393.502V445.343H397.437V438.691Z" fill="#EBEBEB"/>
<path d="M392.155 446.551H388.22V456.404H392.155V446.551Z" fill="#EBEBEB"/>
<path d="M397.437 446.551H393.502V456.404H397.437V446.551Z" fill="#EBEBEB"/>
<path d="M455.175 429.086H467.399V408.442H455.175V429.086Z" fill="#FBFAFF"/>
<path d="M465.89 409.877H461.956V416.528H465.89V409.877Z" fill="#EBEBEB"/>
<path d="M460.608 409.877H456.673V416.528H460.608V409.877Z" fill="#EBEBEB"/>
<path d="M465.89 417.725H461.956V427.578H465.89V417.725Z" fill="#EBEBEB"/>
<path d="M460.608 417.725H456.673V427.578H460.608V417.725Z" fill="#EBEBEB"/>
<path d="M455.175 397.178H467.399V379.703H455.175V397.178Z" fill="#FBFAFF"/>
<path d="M465.89 381.127H461.956V387.778H465.89V381.127Z" fill="#EBEBEB"/>
<path d="M460.608 381.127H456.673V387.778H460.608V381.127Z" fill="#EBEBEB"/>
<path d="M465.89 389.051H461.956V395.702H465.89V389.051Z" fill="#EBEBEB"/>
<path d="M460.608 389.051H456.673V395.702H460.608V389.051Z" fill="#EBEBEB"/>
<path d="M453.435 464.206L468.258 464.275L468.385 437.358L453.562 437.288L453.435 464.206Z" fill="#FBFAFF"/>
<path d="M459.357 439.152L459.338 443.184L462.529 443.199L462.548 439.167L459.357 439.152Z" fill="#EBEBEB"/>
<path d="M455.187 439.13L455.168 443.162L458.359 443.177L458.378 439.145L455.187 439.13Z" fill="#EBEBEB"/>
<path d="M457.505 457.822L464.243 457.854L464.247 456.883L457.51 456.852L457.505 457.822Z" fill="#EBEBEB"/>
<path d="M461.352 437.097V441.129H464.542V437.097H461.352Z" fill="#EBEBEB"/>
<path d="M459.346 444.242L459.327 448.273L462.517 448.288L462.536 444.257L459.346 444.242Z" fill="#EBEBEB"/>
<path d="M455.144 444.211L455.125 448.242L458.315 448.257L458.334 444.226L455.144 444.211Z" fill="#EBEBEB"/>
<path d="M463.527 444.263L463.508 448.295L466.699 448.31L466.718 444.278L463.527 444.263Z" fill="#EBEBEB"/>
<path d="M459.324 449.343L459.305 453.375L462.496 453.39L462.515 449.358L459.324 449.343Z" fill="#EBEBEB"/>
<path d="M455.132 449.322L455.113 453.354L458.304 453.369L458.323 449.337L455.132 449.322Z" fill="#EBEBEB"/>
<path d="M463.505 449.365L463.486 453.396L466.677 453.412L466.696 449.38L463.505 449.365Z" fill="#EBEBEB"/>
<path d="M220.451 464.262H151.782L148.71 430.984H220.451V464.262Z" fill="#DBDBDB"/>
<path d="M220.43 430.94L245.094 400.066L264.735 430.94L261.663 464.218H220.43V430.94Z" fill="#C7C7C7"/>
<path d="M172.275 390.301H246.862L274.491 436.989H266.956L245.849 401.846L225.572 436.989H142.932L172.275 390.301Z" fill="#A6A6A6"/>
<path d="M170.065 443.338H159.199V458.861H170.065V443.338Z" fill="#FBFAFF"/>
<path d="M164.028 444.609H160.536V450.517H164.028V444.609Z" fill="#DBDBDB"/>
<path d="M168.718 444.609H165.225V450.517H168.718V444.609Z" fill="#DBDBDB"/>
<path d="M164.028 451.639H160.536V457.546H164.028V451.639Z" fill="#DBDBDB"/>
<path d="M168.718 451.639H165.225V457.546H168.718V451.639Z" fill="#DBDBDB"/>
<path d="M209.973 443.338H199.107V458.861H209.973V443.338Z" fill="#FBFAFF"/>
<path d="M203.936 444.609H200.443V450.517H203.936V444.609Z" fill="#DBDBDB"/>
<path d="M208.626 444.609H205.133V450.517H208.626V444.609Z" fill="#DBDBDB"/>
<path d="M203.936 451.639H200.443V457.546H203.936V451.639Z" fill="#DBDBDB"/>
<path d="M208.626 451.639H205.133V457.546H208.626V451.639Z" fill="#DBDBDB"/>
<path d="M190.084 442.508H178.107V464.262H190.084V442.508Z" fill="#FBFAFF"/>
<path d="M185.384 444.006H182.807V447.261H185.384V444.006Z" fill="#DBDBDB"/>
<path d="M188.769 444.006H186.192V447.261H188.769V444.006Z" fill="#DBDBDB"/>
<path d="M186.817 458.289H181.374V459.076H186.817V458.289Z" fill="#DBDBDB"/>
<path d="M181.999 444.006H179.422V447.261H181.999V444.006Z" fill="#DBDBDB"/>
<path d="M185.384 448.125H182.807V451.381H185.384V448.125Z" fill="#DBDBDB"/>
<path d="M188.769 448.125H186.192V451.381H188.769V448.125Z" fill="#DBDBDB"/>
<path d="M181.999 448.125H179.422V451.381H181.999V448.125Z" fill="#DBDBDB"/>
<path d="M185.384 452.242H182.807V455.498H185.384V452.242Z" fill="#DBDBDB"/>
<path d="M188.769 452.242H186.192V455.498H188.769V452.242Z" fill="#DBDBDB"/>
<path d="M181.999 452.242H179.422V455.498H181.999V452.242Z" fill="#DBDBDB"/>
<path d="M188.057 388.436H179.282V399.981H188.057V388.436Z" fill="#DBDBDB"/>
<path d="M188.057 388.436H194.956V390.29L188.057 399.981V388.436Z" fill="#C7C7C7"/>
<path d="M188.057 384.5H178.301V388.424H188.057V384.5Z" fill="#C7C7C7"/>
<path d="M195.711 384.5H188.057V388.424H195.711V384.5Z" fill="#A6A6A6"/>
<path d="M247.595 464.273H269.867L271.99 441.322H247.595V464.273Z" fill="#C7C7C7"/>
<path d="M247.595 441.321L236.589 436.352L236.837 464.272H247.595V441.321Z" fill="#DBDBDB"/>
<path d="M264.649 447.262H255.281V464.262H264.649V447.262Z" fill="#FBFAFF"/>
<path d="M260.973 448.426H258.957V450.97H260.973V448.426Z" fill="#DBDBDB"/>
<path d="M263.614 448.426H261.598V450.97H263.614V448.426Z" fill="#DBDBDB"/>
<path d="M262.094 458.451H257.836V459.066H262.094V458.451Z" fill="#DBDBDB"/>
<path d="M258.332 448.426H256.316V450.97H258.332V448.426Z" fill="#DBDBDB"/>
<path d="M234.907 435.209H267.269L277.725 443.165H246.657L234.907 435.209Z" fill="#A6A6A6"/>
<path d="M246.657 443.165H234.907V435.209L246.657 443.165Z" fill="#C7C7C7"/>
<path d="M239.704 423.579C239.704 424.678 240.03 425.751 240.64 426.665C241.251 427.578 242.119 428.289 243.134 428.709C244.149 429.129 245.266 429.238 246.343 429.023C247.42 428.808 248.409 428.278 249.185 427.501C249.961 426.723 250.489 425.733 250.702 424.656C250.915 423.578 250.804 422.461 250.382 421.447C249.96 420.433 249.247 419.566 248.332 418.958C247.418 418.349 246.344 418.025 245.245 418.027C243.774 418.03 242.365 418.616 241.326 419.657C240.288 420.698 239.704 422.109 239.704 423.579Z" fill="#FBFAFF"/>
<path d="M240.944 423.579C240.944 424.722 241.398 425.819 242.207 426.628C243.015 427.436 244.112 427.891 245.256 427.891C245.62 427.893 245.983 427.846 246.334 427.75C247.338 427.478 248.21 426.851 248.788 425.987C249.367 425.122 249.613 424.077 249.482 423.045C249.35 422.013 248.85 421.063 248.074 420.37C247.297 419.678 246.296 419.29 245.256 419.277C244.892 419.276 244.529 419.323 244.178 419.418C243.676 419.539 243.204 419.759 242.787 420.064C242.221 420.46 241.758 420.985 241.437 421.597C241.116 422.208 240.947 422.888 240.944 423.579Z" fill="#C7C7C7"/>
<path d="M244.652 428.645H245.849V418.425H244.652V428.645Z" fill="#FBFAFF"/>
<path d="M250.366 424.128V422.932H240.146V424.128H250.366Z" fill="#FBFAFF"/>
<path d="M279.332 464.273H244.631L242.259 438.605H279.332V464.273Z" fill="#FFBABA"/>
<path opacity="0.2" d="M279.332 464.273H244.631L242.259 438.605H279.332V464.273Z" fill="black"/>
<path d="M279.332 438.605L298.358 414.781L313.504 438.605L311.143 464.272H279.332V438.605Z" fill="#FFBABA"/>
<path d="M281.628 441.743H234.541L263.183 405.727H298.552L319.81 441.743H314.41L298.552 417.067L281.628 441.743Z" fill="#FFBABA"/>
<path opacity="0.4" d="M281.628 441.743H234.541L263.183 405.727H298.552L319.81 441.743H314.41L298.552 417.067L281.628 441.743Z" fill="black"/>
<path d="M329.146 373.871H319.336V386.786H329.146V373.871Z" fill="#FFBABA"/>
<path opacity="0.2" d="M329.146 373.871H319.336V386.786H329.146V373.871Z" fill="black"/>
<path d="M336.864 373.871H329.146V386.786H336.864V373.871Z" fill="#FFBABA"/>
<path d="M329.146 369.473H318.236V373.86H329.146V369.473Z" fill="#FFBABA"/>
<path opacity="0.5" d="M329.146 369.473H318.236V373.86H329.146V369.473Z" fill="black"/>
<path d="M337.705 369.473H329.146V373.86H337.705V369.473Z" fill="#FFBABA"/>
<path opacity="0.4" d="M337.705 369.473H329.146V373.86H337.705V369.473Z" fill="black"/>
<path d="M363.62 464.241H286.813L283.374 427.018H363.62V464.241Z" fill="#FFBABA"/>
<path opacity="0.2" d="M363.62 464.241H286.813L283.374 427.018H363.62V464.241Z" fill="black"/>
<path d="M363.62 427.017L391.206 392.467L413.176 427.017L409.737 464.24H363.62V427.017Z" fill="#FFBABA"/>
<path d="M390.872 394.656L413.553 429.734H421.477L391.551 381.504H309.85L268.455 433.733H368.245L390.872 394.656Z" fill="#FFBABA"/>
<path opacity="0.5" d="M390.872 394.656L413.553 429.734H421.477L391.551 381.504H309.85L268.455 433.733H368.245L390.872 394.656Z" fill="black"/>
<path d="M384.037 432.246H396.187V414.88H384.037V432.246Z" fill="#FBFAFF"/>
<path d="M394.688 416.291H390.775V422.899H394.688V416.291Z" fill="#FFBABA"/>
<path d="M389.449 416.291H385.536V422.899H389.449V416.291Z" fill="#FFBABA"/>
<path d="M394.688 424.16H390.775V430.768H394.688V424.16Z" fill="#FFBABA"/>
<path d="M389.449 424.16H385.536V430.768H389.449V424.16Z" fill="#FFBABA"/>
<path d="M307.252 440.826H295.103V458.193H307.252V440.826Z" fill="#FBFAFF"/>
<path d="M300.514 442.25H296.601V448.858H300.514V442.25Z" fill="#FFBABA"/>
<path d="M305.764 442.25H301.851V448.858H305.764V442.25Z" fill="#FFBABA"/>
<path d="M300.514 450.119H296.601V456.727H300.514V450.119Z" fill="#FFBABA"/>
<path d="M305.764 450.119H301.851V456.727H305.764V450.119Z" fill="#FFBABA"/>
<path d="M329.577 440.826H317.428V458.193H329.577V440.826Z" fill="#FBFAFF"/>
<path d="M322.829 442.25H318.916V448.858H322.829V442.25Z" fill="#FFBABA"/>
<path d="M328.079 442.25H324.166V448.858H328.079V442.25Z" fill="#FFBABA"/>
<path d="M322.829 450.119H318.916V456.727H322.829V450.119Z" fill="#FFBABA"/>
<path d="M328.079 450.119H324.166V456.727H328.079V450.119Z" fill="#FFBABA"/>
<path d="M351.892 440.826H339.743V458.193H351.892V440.826Z" fill="#FBFAFF"/>
<path d="M345.154 442.25H341.241V448.858H345.154V442.25Z" fill="#FFBABA"/>
<path d="M350.393 442.25H346.48V448.858H350.393V442.25Z" fill="#FFBABA"/>
<path d="M345.154 450.119H341.241V456.727H345.154V450.119Z" fill="#FFBABA"/>
<path d="M350.393 450.119H346.48V456.727H350.393V450.119Z" fill="#FFBABA"/>
<path d="M383.412 464.23H396.812V439.9H383.412V464.23Z" fill="#FBFAFF"/>
<path d="M391.562 441.58H388.673V445.224H391.562V441.58Z" fill="#FFBABA"/>
<path d="M387.778 441.58H384.889V445.224H387.778V441.58Z" fill="#FFBABA"/>
<path d="M387.067 458.441H393.157V457.557H387.067V458.441Z" fill="#FFBABA"/>
<path d="M395.335 441.58H392.446V445.224H395.335V441.58Z" fill="#FFBABA"/>
<path d="M391.562 446.184H388.673V449.827H391.562V446.184Z" fill="#FFBABA"/>
<path d="M387.778 446.184H384.889V449.827H387.778V446.184Z" fill="#FFBABA"/>
<path d="M395.335 446.184H392.446V449.827H395.335V446.184Z" fill="#FFBABA"/>
<path d="M391.562 450.787H388.673V454.431H391.562V450.787Z" fill="#FFBABA"/>
<path d="M387.778 450.787H384.889V454.431H387.778V450.787Z" fill="#FFBABA"/>
<path d="M395.335 450.787H392.446V454.431H395.335V450.787Z" fill="#FFBABA"/>
<path d="M341.478 394.008H323.842L314.776 405.327H334.74L341.478 394.008Z" fill="#FFBABA"/>
<path opacity="0.4" d="M341.478 394.008H323.842L314.776 405.327H334.74L341.478 394.008Z" fill="black"/>
<path d="M328.122 403.345V417.068H318.301V403.345L323.217 397.211L328.122 403.345Z" fill="#FFBABA"/>
<path opacity="0.2" d="M328.122 403.345V417.068H318.301V403.345L323.217 397.211L328.122 403.345Z" fill="black"/>
<path d="M328.122 403.344H335.84L328.122 417.067V403.344Z" fill="#FFBABA"/>
<path d="M325.739 403.561H320.166V412.971H325.739V403.561Z" fill="#FBFAFF"/>
<path d="M322.656 404.207H320.856V407.236H322.656V404.207Z" fill="#FFBABA"/>
<path d="M325.06 404.207H323.26V407.236H325.06V404.207Z" fill="#FFBABA"/>
<path d="M322.656 407.797H320.856V412.292H322.656V407.797Z" fill="#FFBABA"/>
<path d="M325.06 407.797H323.26V412.292H325.06V407.797Z" fill="#FFBABA"/>
<path d="M443.727 262.947C448.528 267.03 452.1 272.366 454.044 278.361C455.988 284.356 456.227 290.773 454.735 296.896C453.244 303.019 450.08 308.607 445.596 313.036C441.113 317.466 435.487 320.561 429.346 321.978L421.8 337.426L414.48 322.086C409.007 320.913 403.912 318.394 399.658 314.756C396.256 311.862 393.458 308.326 391.422 304.35C389.387 300.374 388.155 296.036 387.796 291.584C387.071 282.593 389.948 273.682 395.793 266.812C401.639 259.941 409.974 255.675 418.965 254.95C427.956 254.225 436.867 257.102 443.737 262.947H443.727Z" fill="white"/>
<path d="M443.727 262.946C448.527 267.03 452.104 272.361 454.065 278.351C454.555 279.841 454.952 281.36 455.25 282.9C455.508 284.448 455.67 286.011 455.735 287.579C455.882 290.723 455.588 293.873 454.862 296.936C454.149 300.006 453.013 302.963 451.488 305.721C450.717 307.097 449.849 308.415 448.89 309.667C447.964 310.944 446.941 312.148 445.829 313.267C441.333 317.795 435.661 320.977 429.454 322.452L429.788 322.193L422.328 337.684L421.789 338.816L421.25 337.684L413.877 322.376L414.329 322.732C407.906 321.34 402.015 318.137 397.355 313.501C392.694 308.866 389.459 302.994 388.031 296.577C386.603 290.161 387.043 283.471 389.298 277.297C391.554 271.123 395.53 265.724 400.757 261.739C404.904 258.631 409.692 256.488 414.771 255.465C419.849 254.437 425.094 254.576 430.11 255.872C435.126 257.168 439.782 259.587 443.727 262.946ZM443.727 262.946C439.809 259.602 435.176 257.202 430.184 255.931C425.193 254.66 419.976 254.552 414.936 255.615C409.896 256.679 405.168 258.885 401.116 262.064C397.063 265.244 393.795 269.311 391.562 273.953C389.336 278.542 388.186 283.578 388.199 288.678C388.261 293.754 389.424 298.756 391.605 303.339C393.817 307.9 397.035 311.899 401.016 315.035C405.005 318.157 409.643 320.345 414.588 321.439L414.912 321.514L415.041 321.805L422.317 337.167H421.239L428.904 321.773L429.001 321.557H429.227C435.321 320.223 440.922 317.214 445.397 312.869C446.509 311.784 447.536 310.617 448.47 309.376C449.434 308.158 450.31 306.872 451.089 305.527C452.652 302.831 453.828 299.928 454.582 296.903C455.364 293.878 455.698 290.755 455.574 287.633C455.518 286.073 455.37 284.518 455.132 282.976C454.84 281.441 454.455 279.925 453.978 278.437C452.057 272.426 448.509 267.064 443.727 262.946Z" fill="#263238"/>
<path d="M430.931 280.216C430.554 279.831 430.134 279.491 429.68 279.202C429.079 278.813 428.448 278.47 427.794 278.178C426.21 277.46 424.514 277.023 422.781 276.885V286.587L423.676 286.77C425.219 287.138 426.742 287.592 428.236 288.128C429.466 288.56 430.625 289.174 431.674 289.95C432.587 290.652 433.325 291.556 433.83 292.591C434.371 293.789 434.633 295.094 434.596 296.407C434.639 297.866 434.336 299.314 433.712 300.633C433.135 301.79 432.293 302.795 431.254 303.565C430.154 304.367 428.915 304.959 427.6 305.311C426.145 305.712 424.645 305.926 423.137 305.947V310.863H420.711V305.85C418.503 305.717 416.325 305.271 414.243 304.524C412.237 303.803 410.36 302.766 408.681 301.452L411.063 296.968C411.514 297.43 412.017 297.839 412.561 298.186C413.291 298.661 414.055 299.083 414.847 299.447C415.778 299.877 416.74 300.237 417.725 300.525C418.782 300.838 419.864 301.058 420.959 301.183V291.481C420.776 291.427 420.571 291.362 420.377 291.319C420.18 291.278 419.985 291.224 419.795 291.157C418.333 290.779 416.893 290.318 415.483 289.777C414.373 289.364 413.338 288.77 412.421 288.02C411.632 287.37 411.002 286.547 410.578 285.616C410.124 284.559 409.907 283.414 409.942 282.264C409.912 280.867 410.184 279.481 410.74 278.2C411.258 277.029 412.022 275.985 412.982 275.138C413.974 274.259 415.122 273.576 416.367 273.122C417.754 272.617 419.206 272.312 420.679 272.217V267.484H423.104V272.217C425.03 272.315 426.927 272.726 428.721 273.435C430.332 274.063 431.857 274.892 433.259 275.904L430.931 280.216ZM415.494 281.423C415.455 281.992 415.562 282.561 415.803 283.077C416.044 283.594 416.413 284.041 416.873 284.377C418.159 285.185 419.574 285.769 421.056 286.101V276.885C419.541 276.847 418.058 277.318 416.841 278.221C416.393 278.621 416.039 279.116 415.806 279.67C415.573 280.224 415.466 280.823 415.494 281.423ZM429.044 296.957C429.073 296.34 428.936 295.727 428.648 295.181C428.36 294.635 427.931 294.177 427.406 293.852C425.974 293.001 424.428 292.362 422.813 291.955V301.215C424.422 301.293 426.02 300.92 427.427 300.137C427.952 299.795 428.378 299.322 428.662 298.764C428.945 298.205 429.077 297.582 429.044 296.957Z" fill="#FFBABA"/>
</svg>
