<svg width="49" height="48" viewBox="0 0 49 48" fill="none" xmlns="http://www.w3.org/2000/svg">
<path d="M13.7435 41.7967C13.6149 42.022 13.3776 42.1495 13.1305 42.1495C13.0118 42.1495 12.8932 42.1201 12.7844 42.0613C9.46224 40.1797 6.69377 37.4553 4.76572 34.1821C4.56798 33.8489 4.68663 33.4275 5.0228 33.2315C5.35897 33.0355 5.78413 33.1531 5.98187 33.4863C7.78138 36.5537 10.3818 39.1017 13.4864 40.8559C13.8226 41.0421 13.9412 41.4635 13.7435 41.7967ZM42.5751 32.2221C42.2291 32.0457 41.8039 32.1829 41.6358 32.5259C38.9563 37.7101 34.161 41.4831 28.4757 42.8844C28.1 42.9726 27.8726 43.3548 27.9616 43.7272C28.0407 44.0408 28.3274 44.2564 28.6438 44.2564C28.7031 44.2564 28.7525 44.2466 28.8119 44.2368C34.8827 42.7374 40.0143 38.6999 42.8816 33.1629C43.0596 32.8199 42.9212 32.3985 42.5751 32.2221ZM36.8404 7.19314C36.5834 7.47734 36.613 7.91833 36.9097 8.17313C40.5482 11.3189 42.9311 15.6505 43.643 20.3544C43.6924 20.6974 43.989 20.9424 44.3351 20.9424C44.3647 20.9424 44.4043 20.9424 44.434 20.9326C44.8196 20.8738 45.0766 20.521 45.0272 20.1388C44.2758 15.1017 41.7149 10.4859 37.8292 7.11474C37.5424 6.87954 37.0975 6.90894 36.8404 7.19314ZM2.55095 25.2054C2.56084 25.2054 2.58061 25.2054 2.5905 25.2054C2.97611 25.1858 3.27273 24.8526 3.25295 24.4704C3.23318 24.098 3.22329 23.7158 3.22329 23.3434C3.22329 12.2401 12.3395 3.20457 23.5419 3.20457C23.9077 3.20457 24.2834 3.21437 24.6493 3.23397C25.0349 3.25357 25.3612 2.95958 25.3908 2.57738C25.4106 2.19518 25.114 1.87178 24.7284 1.84238C24.3329 1.82278 23.9374 1.81298 23.5419 1.81298C17.738 1.81298 12.29 4.05717 8.18676 8.11433C4.08349 12.1911 1.81928 17.5909 1.81928 23.3434C1.81928 23.7452 1.82917 24.147 1.84894 24.5488C1.87861 24.9212 2.18511 25.2054 2.55095 25.2054ZM48.5867 22.1184C48.3098 21.844 47.8649 21.844 47.5979 22.1184L41.5963 28.067C41.3194 28.3414 41.3194 28.7824 41.5963 29.047C41.7347 29.1842 41.9127 29.2528 42.0906 29.2528C42.2686 29.2528 42.4466 29.1842 42.585 29.047L48.5867 23.0984C48.8536 22.824 48.8536 22.3928 48.5867 22.1184ZM10.1445 29.096L8.65147 30.5757C8.37462 30.8501 8.37462 31.2911 8.65147 31.5557C8.78989 31.6929 8.96787 31.7615 9.14584 31.7615C9.32381 31.7615 9.50179 31.6929 9.64021 31.5557L11.1332 30.076C11.4101 29.8016 11.4101 29.3606 11.1332 29.096C10.8662 28.8314 10.4213 28.8314 10.1445 29.096ZM16.8877 8.43773L15.3947 9.91752C15.1178 10.1919 15.1178 10.6329 15.3947 10.8975C15.5331 11.0347 15.7111 11.1033 15.889 11.1033C16.067 11.1033 16.245 11.0347 16.3834 10.8975L17.8764 9.41772C18.1533 9.14332 18.1533 8.70233 17.8764 8.43773C17.5996 8.17313 17.1546 8.17313 16.8877 8.43773ZM30.5323 34.9759L29.0393 36.4557C28.7624 36.7301 28.7624 37.1711 29.0393 37.4357C29.1777 37.5729 29.3557 37.6415 29.5337 37.6415C29.7116 37.6415 29.8896 37.5729 30.028 37.4357L31.521 35.9559C31.7979 35.6815 31.7979 35.2405 31.521 34.9759C31.2442 34.7113 30.8091 34.7015 30.5323 34.9759ZM36.7811 23.1768L33.7852 26.1462C33.5084 26.4206 33.5084 26.8616 33.7852 27.1262C33.9237 27.2634 34.1016 27.332 34.2796 27.332C34.4576 27.332 34.6355 27.2634 34.774 27.1262L37.7699 24.1568C38.0467 23.8824 38.0467 23.4414 37.7699 23.1768C37.493 22.9122 37.058 22.9024 36.7811 23.1768ZM32.9942 6.10535C33.1327 6.24255 33.3106 6.31115 33.4886 6.31115C33.6666 6.31115 33.8446 6.24255 33.983 6.10535L36.9789 3.13597C37.2557 2.86158 37.2557 2.42058 36.9789 2.15598C36.702 1.89138 36.2571 1.88158 35.9901 2.15598L32.9942 5.11556C32.7174 5.38996 32.7174 5.83095 32.9942 6.10535ZM21.604 43.8448L18.6081 46.8142C18.3312 47.0886 18.3312 47.5296 18.6081 47.7942C18.7465 47.9314 18.9245 48 19.1024 48C19.2804 48 19.4584 47.9314 19.5968 47.7942L22.5927 44.8248C22.8695 44.5504 22.8695 44.1094 22.5927 43.8448C22.3159 43.5802 21.8808 43.5802 21.604 43.8448ZM11.4101 13.8767L8.41417 16.8461C8.13733 17.1205 8.13733 17.5615 8.41417 17.8261C8.5526 17.9633 8.73057 18.0319 8.90854 18.0319C9.08652 18.0319 9.26449 17.9633 9.40291 17.8261L12.3988 14.8567C12.6756 14.5823 12.6756 14.1413 12.3988 13.8767C12.1219 13.6121 11.6869 13.6023 11.4101 13.8767ZM28.278 33.4863L15.1079 46.5594C14.9695 46.6966 14.7915 46.7652 14.6136 46.7652C14.4356 46.7652 14.2576 46.6966 14.1192 46.5594C13.8424 46.285 13.8424 45.844 14.1192 45.5794L24.3922 35.3875C23.7199 35.5149 23.0179 35.5835 22.2862 35.5835C20.7536 35.5835 19.3397 35.3091 18.084 34.7603C16.769 34.1821 15.7111 33.3393 14.9497 32.2417C14.1785 31.1245 13.783 29.8114 13.783 28.3316C13.783 27.136 14.139 26.2638 14.8311 25.7346C15.4144 25.2936 16.1758 25.0878 17.1447 25.0878C17.8369 25.0878 18.4697 25.2152 19.0233 25.4602C19.8737 25.8424 20.3878 26.6166 20.4471 27.5966C20.4768 27.9494 20.5559 28.312 20.6844 28.6844C20.7635 28.9098 20.8921 29.0862 21.0997 29.243C21.1887 29.3018 21.4556 29.4488 22.128 29.4488C23.0475 29.4488 23.354 29.1352 23.4529 29.0372C23.799 28.6746 23.8781 27.9788 23.8781 27.4496V17.2381H22.217C21.3469 17.2381 20.6152 16.8265 20.1505 16.0817C19.8045 15.5231 19.6265 14.8763 19.6265 14.1413C19.6265 13.5239 19.7748 12.9261 20.0714 12.3773C20.2098 12.1225 20.3878 11.8971 20.5856 11.7109L32.1934 0.205798C32.4702 -0.0685994 32.9151 -0.0685994 33.1821 0.205798C33.4491 0.480196 33.4589 0.921192 33.1821 1.18579L23.1761 11.1033H27.4079C28.0901 11.1033 28.7328 11.2699 29.3062 11.6031C30.0873 12.0539 30.5323 12.8183 30.5323 13.7003V27.4496C30.5323 29.3312 30.1467 30.9089 29.3853 32.1143C29.0689 32.6337 28.6932 33.0943 28.278 33.4863ZM27.2694 32.5259L27.4474 32.3495C27.4474 32.3495 27.4474 32.3495 27.4573 32.3397C27.7341 32.0555 27.9813 31.7321 28.2087 31.3793C28.8316 30.3895 29.148 29.0764 29.148 27.4496V13.7003C29.148 13.3083 28.9701 13.0045 28.6141 12.7987C28.2582 12.5929 27.8627 12.4851 27.4276 12.4851H22.2269C21.95 12.4851 21.7226 12.5635 21.5545 12.7203L21.5051 12.7693C21.4952 12.7791 21.4853 12.7791 21.4853 12.7889C21.426 12.8575 21.3766 12.9261 21.3271 13.0143C21.1393 13.3671 21.0404 13.7395 21.0404 14.1315C21.0404 14.6019 21.1491 15.0037 21.3568 15.3369C21.5644 15.6701 21.861 15.8367 22.2368 15.8367H25.292V27.4398C25.292 28.5766 25.0151 29.4292 24.4713 29.9878C23.9275 30.5463 23.1464 30.8305 22.1379 30.8305C21.3271 30.8305 20.7042 30.6639 20.2692 30.3405C19.8341 30.0171 19.5276 29.6056 19.3595 29.1156C19.1914 28.6256 19.0827 28.1454 19.0431 27.675C19.0234 27.2046 18.8256 26.8812 18.4499 26.7146C18.0742 26.548 17.6391 26.4598 17.1447 26.4598C16.4922 26.4598 15.9978 26.5872 15.6715 26.8322C15.3452 27.0772 15.1772 27.577 15.1772 28.3218C15.1772 29.5174 15.4837 30.5561 16.0967 31.4479C16.7097 32.3299 17.56 33.0061 18.6377 33.4765C19.7155 33.9469 20.9316 34.1821 22.2763 34.1821C23.5419 34.1821 24.6888 33.9567 25.727 33.5157C26.3005 33.2805 26.8146 32.9473 27.2694 32.5259ZM13.4765 19.7272C13.1997 19.4528 12.7547 19.4528 12.4878 19.7272L0.207635 31.8889C-0.0692118 32.1633 -0.0692118 32.6043 0.207635 32.8689C0.346059 33.0061 0.524032 33.0747 0.702005 33.0747C0.879978 33.0747 1.05795 33.0061 1.19637 32.8689L13.4765 20.6974C13.7534 20.4328 13.7534 19.9918 13.4765 19.7272Z" fill="#25A2B7"/>
</svg>
